%TF.GenerationSoftware,KiCad,Pcbnew,9.0.2*%
%TF.CreationDate,2026-02-24T05:03:32-05:00*%
%TF.ProjectId,PowerDistro_New,506f7765-7244-4697-9374-726f5f4e6577,rev?*%
%TF.SameCoordinates,Original*%
%TF.FileFunction,Paste,Top*%
%TF.FilePolarity,Positive*%
%FSLAX46Y46*%
G04 Gerber Fmt 4.6, Leading zero omitted, Abs format (unit mm)*
G04 Created by KiCad (PCBNEW 9.0.2) date 2026-02-24 05:03:32*
%MOMM*%
%LPD*%
G01*
G04 APERTURE LIST*
G04 Aperture macros list*
%AMRoundRect*
0 Rectangle with rounded corners*
0 $1 Rounding radius*
0 $2 $3 $4 $5 $6 $7 $8 $9 X,Y pos of 4 corners*
0 Add a 4 corners polygon primitive as box body*
4,1,4,$2,$3,$4,$5,$6,$7,$8,$9,$2,$3,0*
0 Add four circle primitives for the rounded corners*
1,1,$1+$1,$2,$3*
1,1,$1+$1,$4,$5*
1,1,$1+$1,$6,$7*
1,1,$1+$1,$8,$9*
0 Add four rect primitives between the rounded corners*
20,1,$1+$1,$2,$3,$4,$5,0*
20,1,$1+$1,$4,$5,$6,$7,0*
20,1,$1+$1,$6,$7,$8,$9,0*
20,1,$1+$1,$8,$9,$2,$3,0*%
G04 Aperture macros list end*
%ADD10RoundRect,0.750000X-0.750000X-1.350000X0.750000X-1.350000X0.750000X1.350000X-0.750000X1.350000X0*%
%ADD11RoundRect,0.250000X-0.262500X-0.450000X0.262500X-0.450000X0.262500X0.450000X-0.262500X0.450000X0*%
%ADD12RoundRect,0.250000X0.262500X0.450000X-0.262500X0.450000X-0.262500X-0.450000X0.262500X-0.450000X0*%
%ADD13RoundRect,0.250000X-0.250000X-1.500000X0.250000X-1.500000X0.250000X1.500000X-0.250000X1.500000X0*%
%ADD14RoundRect,0.250001X-0.499999X-1.449999X0.499999X-1.449999X0.499999X1.449999X-0.499999X1.449999X0*%
%ADD15R,1.200000X0.700000*%
%ADD16R,1.200000X0.760000*%
%ADD17R,1.200000X0.800000*%
%ADD18RoundRect,0.200000X-0.400000X-0.200000X0.400000X-0.200000X0.400000X0.200000X-0.400000X0.200000X0*%
G04 APERTURE END LIST*
D10*
%TO.C,U3*%
X154500000Y-36000000D03*
X137000000Y-36000000D03*
X154500000Y-74000000D03*
X137000000Y-74000000D03*
%TD*%
D11*
%TO.C,R2*%
X178500000Y-105000000D03*
X180325000Y-105000000D03*
%TD*%
D12*
%TO.C,R3*%
X180325000Y-113500000D03*
X178500000Y-113500000D03*
%TD*%
D13*
%TO.C,J2*%
X114000000Y-126750000D03*
X116000000Y-126750000D03*
D14*
X111650000Y-132500000D03*
X118350000Y-132500000D03*
%TD*%
D10*
%TO.C,U1*%
X43587500Y-36912500D03*
X26087500Y-36912500D03*
X43587500Y-74912500D03*
X26087500Y-74912500D03*
%TD*%
D15*
%TO.C,J7*%
X192157500Y-109820000D03*
D16*
X192157500Y-107800000D03*
D17*
X192157500Y-106570000D03*
D15*
X192157500Y-108820000D03*
D16*
X192157500Y-110840000D03*
D17*
X192157500Y-112070000D03*
%TD*%
D10*
%TO.C,U5*%
X119000000Y-36000000D03*
X101500000Y-36000000D03*
X119000000Y-74000000D03*
X101500000Y-74000000D03*
%TD*%
D18*
%TO.C,U4*%
X59850000Y-96730000D03*
X59850000Y-99270000D03*
X66150000Y-99270000D03*
X66150000Y-98000000D03*
X66150000Y-96730000D03*
%TD*%
D11*
%TO.C,R1*%
X52587500Y-113500000D03*
X54412500Y-113500000D03*
%TD*%
D13*
%TO.C,J3*%
X37000000Y-127150000D03*
X39000000Y-127150000D03*
X41000000Y-127150000D03*
D14*
X34650000Y-132900000D03*
X43350000Y-132900000D03*
%TD*%
D10*
%TO.C,U2*%
X82000000Y-37000000D03*
X64500000Y-37000000D03*
X82000000Y-75000000D03*
X64500000Y-75000000D03*
%TD*%
M02*
