%TF.GenerationSoftware,KiCad,Pcbnew,9.0.2*%
%TF.CreationDate,2026-02-24T05:03:31-05:00*%
%TF.ProjectId,PowerDistro_New,506f7765-7244-4697-9374-726f5f4e6577,rev?*%
%TF.SameCoordinates,Original*%
%TF.FileFunction,Copper,L1,Top*%
%TF.FilePolarity,Positive*%
%FSLAX46Y46*%
G04 Gerber Fmt 4.6, Leading zero omitted, Abs format (unit mm)*
G04 Created by KiCad (PCBNEW 9.0.2) date 2026-02-24 05:03:31*
%MOMM*%
%LPD*%
G01*
G04 APERTURE LIST*
G04 Aperture macros list*
%AMRoundRect*
0 Rectangle with rounded corners*
0 $1 Rounding radius*
0 $2 $3 $4 $5 $6 $7 $8 $9 X,Y pos of 4 corners*
0 Add a 4 corners polygon primitive as box body*
4,1,4,$2,$3,$4,$5,$6,$7,$8,$9,$2,$3,0*
0 Add four circle primitives for the rounded corners*
1,1,$1+$1,$2,$3*
1,1,$1+$1,$4,$5*
1,1,$1+$1,$6,$7*
1,1,$1+$1,$8,$9*
0 Add four rect primitives between the rounded corners*
20,1,$1+$1,$2,$3,$4,$5,0*
20,1,$1+$1,$4,$5,$6,$7,0*
20,1,$1+$1,$6,$7,$8,$9,0*
20,1,$1+$1,$8,$9,$2,$3,0*%
G04 Aperture macros list end*
%TA.AperFunction,ComponentPad*%
%ADD10C,5.700000*%
%TD*%
%TA.AperFunction,ComponentPad*%
%ADD11C,4.400000*%
%TD*%
%TA.AperFunction,SMDPad,CuDef*%
%ADD12RoundRect,0.750000X-0.750000X-1.350000X0.750000X-1.350000X0.750000X1.350000X-0.750000X1.350000X0*%
%TD*%
%TA.AperFunction,SMDPad,CuDef*%
%ADD13RoundRect,0.250000X-0.262500X-0.450000X0.262500X-0.450000X0.262500X0.450000X-0.262500X0.450000X0*%
%TD*%
%TA.AperFunction,SMDPad,CuDef*%
%ADD14RoundRect,0.250000X0.262500X0.450000X-0.262500X0.450000X-0.262500X-0.450000X0.262500X-0.450000X0*%
%TD*%
%TA.AperFunction,SMDPad,CuDef*%
%ADD15RoundRect,0.250000X-0.250000X-1.500000X0.250000X-1.500000X0.250000X1.500000X-0.250000X1.500000X0*%
%TD*%
%TA.AperFunction,SMDPad,CuDef*%
%ADD16RoundRect,0.250001X-0.499999X-1.449999X0.499999X-1.449999X0.499999X1.449999X-0.499999X1.449999X0*%
%TD*%
%TA.AperFunction,ComponentPad*%
%ADD17RoundRect,0.250000X-0.750000X0.600000X-0.750000X-0.600000X0.750000X-0.600000X0.750000X0.600000X0*%
%TD*%
%TA.AperFunction,ComponentPad*%
%ADD18O,2.000000X1.700000*%
%TD*%
%TA.AperFunction,ComponentPad*%
%ADD19R,2.000000X1.905000*%
%TD*%
%TA.AperFunction,ComponentPad*%
%ADD20O,2.000000X1.905000*%
%TD*%
%TA.AperFunction,SMDPad,CuDef*%
%ADD21R,1.200000X0.700000*%
%TD*%
%TA.AperFunction,SMDPad,CuDef*%
%ADD22R,1.200000X0.760000*%
%TD*%
%TA.AperFunction,SMDPad,CuDef*%
%ADD23R,1.200000X0.800000*%
%TD*%
%TA.AperFunction,ComponentPad*%
%ADD24O,1.750000X1.150000*%
%TD*%
%TA.AperFunction,SMDPad,CuDef*%
%ADD25RoundRect,0.200000X-0.400000X-0.200000X0.400000X-0.200000X0.400000X0.200000X-0.400000X0.200000X0*%
%TD*%
%TA.AperFunction,ComponentPad*%
%ADD26RoundRect,0.250000X-0.600000X-0.750000X0.600000X-0.750000X0.600000X0.750000X-0.600000X0.750000X0*%
%TD*%
%TA.AperFunction,ComponentPad*%
%ADD27O,1.700000X2.000000*%
%TD*%
%TA.AperFunction,ComponentPad*%
%ADD28RoundRect,0.622531X0.622530X0.731488X-0.622530X0.731488X-0.622530X-0.731488X0.622530X-0.731488X0*%
%TD*%
%TA.AperFunction,ComponentPad*%
%ADD29RoundRect,0.586573X0.662391X0.586572X-0.662391X0.586572X-0.662391X-0.586572X0.662391X-0.586572X0*%
%TD*%
%TA.AperFunction,ComponentPad*%
%ADD30RoundRect,0.613124X0.613124X0.869641X-0.613124X0.869641X-0.613124X-0.869641X0.613124X-0.869641X0*%
%TD*%
%TA.AperFunction,ComponentPad*%
%ADD31RoundRect,0.617688X0.617688X0.858291X-0.617688X0.858291X-0.617688X-0.858291X0.617688X-0.858291X0*%
%TD*%
%TA.AperFunction,ComponentPad*%
%ADD32RoundRect,0.607686X0.607686X0.896286X-0.607686X0.896286X-0.607686X-0.896286X0.607686X-0.896286X0*%
%TD*%
%TA.AperFunction,ComponentPad*%
%ADD33RoundRect,0.608932X0.608932X0.895039X-0.608932X0.895039X-0.608932X-0.895039X0.608932X-0.895039X0*%
%TD*%
%TA.AperFunction,ComponentPad*%
%ADD34RoundRect,0.470000X0.551402X0.470000X-0.551402X0.470000X-0.551402X-0.470000X0.551402X-0.470000X0*%
%TD*%
%TA.AperFunction,ComponentPad*%
%ADD35RoundRect,0.585701X0.585701X0.723217X-0.585701X0.723217X-0.585701X-0.723217X0.585701X-0.723217X0*%
%TD*%
%TA.AperFunction,ComponentPad*%
%ADD36RoundRect,0.250001X1.399999X-1.099999X1.399999X1.099999X-1.399999X1.099999X-1.399999X-1.099999X0*%
%TD*%
%TA.AperFunction,ComponentPad*%
%ADD37O,3.300000X2.700000*%
%TD*%
%TA.AperFunction,ViaPad*%
%ADD38C,0.600000*%
%TD*%
%TA.AperFunction,ViaPad*%
%ADD39C,0.635000*%
%TD*%
%TA.AperFunction,Conductor*%
%ADD40C,2.000000*%
%TD*%
%TA.AperFunction,Conductor*%
%ADD41C,0.635000*%
%TD*%
%TA.AperFunction,Conductor*%
%ADD42C,0.800000*%
%TD*%
%TA.AperFunction,Conductor*%
%ADD43C,0.200000*%
%TD*%
%TA.AperFunction,Conductor*%
%ADD44C,1.000000*%
%TD*%
G04 APERTURE END LIST*
D10*
%TO.P,H3,1*%
%TO.N,N/C*%
X16000000Y-132000000D03*
%TD*%
D11*
%TO.P,U3,1,IN+*%
%TO.N,N/C*%
X155500000Y-29500000D03*
D12*
%TO.N,+BATT*%
X154500000Y-36000000D03*
D11*
%TO.N,N/C*%
X133500000Y-83500000D03*
D12*
%TO.P,U3,2,IN-*%
%TO.N,-BATT*%
X137000000Y-36000000D03*
%TO.P,U3,3,OUT+*%
%TO.N,/19V*%
X154500000Y-74000000D03*
%TO.P,U3,4,Out-*%
%TO.N,/19V GND*%
X137000000Y-74000000D03*
%TD*%
D13*
%TO.P,R2,1*%
%TO.N,/5V Reg1*%
X178500000Y-105000000D03*
%TO.P,R2,2*%
%TO.N,Net-(J7-CC1)*%
X180325000Y-105000000D03*
%TD*%
D14*
%TO.P,R3,1*%
%TO.N,Net-(J7-CC2)*%
X180325000Y-113500000D03*
%TO.P,R3,2*%
%TO.N,/5V Reg1*%
X178500000Y-113500000D03*
%TD*%
D15*
%TO.P,J2,1,Pin_1*%
%TO.N,/Reg3 GND*%
X114000000Y-126750000D03*
%TO.P,J2,2,Pin_2*%
%TO.N,/12V Reg3*%
X116000000Y-126750000D03*
D16*
%TO.P,J2,MP*%
%TO.N,N/C*%
X111650000Y-132500000D03*
X118350000Y-132500000D03*
%TD*%
D17*
%TO.P,J5,1,Pin_1*%
%TO.N,/Reg1 GND*%
X16500000Y-107500000D03*
D18*
%TO.P,J5,2,Pin_2*%
%TO.N,/12V Reg1*%
X16500000Y-110000000D03*
%TD*%
D11*
%TO.P,U1,1,IN+*%
%TO.N,N/C*%
X44587500Y-30412500D03*
D12*
%TO.N,+BATT*%
X43587500Y-36912500D03*
D11*
%TO.N,N/C*%
X22587500Y-84412500D03*
D12*
%TO.P,U1,2,IN-*%
%TO.N,-BATT*%
X26087500Y-36912500D03*
%TO.P,U1,3,OUT+*%
%TO.N,/12V Reg1*%
X43587500Y-74912500D03*
%TO.P,U1,4,Out-*%
%TO.N,/Reg1 GND*%
X26087500Y-74912500D03*
%TD*%
D19*
%TO.P,Q1,1,G*%
%TO.N,/LiDAR Wire*%
X84500000Y-94500000D03*
D20*
%TO.P,Q1,2,D*%
%TO.N,/LiDAR GND*%
X84500000Y-97040000D03*
%TO.P,Q1,3,S*%
%TO.N,/Reg2 GND*%
X84500000Y-99580000D03*
%TD*%
D21*
%TO.P,J7,A5,CC1*%
%TO.N,Net-(J7-CC1)*%
X192157500Y-109820000D03*
D22*
%TO.P,J7,A9,VBUS_A*%
%TO.N,/5V Reg1*%
X192157500Y-107800000D03*
D23*
%TO.P,J7,A12,GND_A*%
%TO.N,/5V GND*%
X192157500Y-106570000D03*
D21*
%TO.P,J7,B5,CC2*%
%TO.N,Net-(J7-CC2)*%
X192157500Y-108820000D03*
D22*
%TO.P,J7,B9,VBUS_B*%
%TO.N,/5V Reg1*%
X192157500Y-110840000D03*
D23*
%TO.P,J7,B12,GND_B*%
%TO.N,/5V GND*%
X192157500Y-112070000D03*
D24*
%TO.P,J7,SH1,SHIELD*%
X192237500Y-113640000D03*
%TO.P,J7,SH2,SHIELD__1*%
X192237500Y-105000000D03*
%TO.P,J7,SH3,SHIELD__2*%
X196037500Y-113640000D03*
%TO.P,J7,SH4,SHIELD__3*%
X196037500Y-105000000D03*
%TD*%
D11*
%TO.P,U5,1,IN+*%
%TO.N,N/C*%
X120000000Y-29500000D03*
D12*
%TO.N,+BATT*%
X119000000Y-36000000D03*
D11*
%TO.N,N/C*%
X98000000Y-83500000D03*
D12*
%TO.P,U5,2,IN-*%
%TO.N,-BATT*%
X101500000Y-36000000D03*
%TO.P,U5,3,OUT+*%
%TO.N,/12V Reg3*%
X119000000Y-74000000D03*
%TO.P,U5,4,Out-*%
%TO.N,/Reg3 GND*%
X101500000Y-74000000D03*
%TD*%
D25*
%TO.P,U4,1,Anode*%
%TO.N,Net-(U4-Anode)*%
X59850000Y-96730000D03*
%TO.P,U4,3,Cathode*%
%TO.N,/Reg1 GND*%
X59850000Y-99270000D03*
%TO.P,U4,4,GND*%
%TO.N,/Reg2 GND*%
X66150000Y-99270000D03*
%TO.P,U4,5,Vo*%
%TO.N,/LiDAR Wire*%
X66150000Y-98000000D03*
%TO.P,U4,6,VCC*%
%TO.N,/12V Reg2*%
X66150000Y-96730000D03*
%TD*%
D13*
%TO.P,R1,1*%
%TO.N,/LiDAR On Pin*%
X52587500Y-113500000D03*
%TO.P,R1,2*%
%TO.N,Net-(U4-Anode)*%
X54412500Y-113500000D03*
%TD*%
D26*
%TO.P,J6,1,Pin_1*%
%TO.N,/LiDAR GND*%
X68750000Y-131150000D03*
D27*
%TO.P,J6,2,Pin_2*%
%TO.N,/12V Reg2*%
X71250000Y-131150000D03*
%TD*%
D15*
%TO.P,J3,1,Pin_1*%
%TO.N,/Reg1 GND*%
X37000000Y-127150000D03*
%TO.P,J3,2,Pin_2*%
%TO.N,/12V Reg1*%
X39000000Y-127150000D03*
%TO.P,J3,3,Pin_3*%
%TO.N,/LiDAR On Pin*%
X41000000Y-127150000D03*
D16*
%TO.P,J3,MP*%
%TO.N,N/C*%
X34650000Y-132900000D03*
X43350000Y-132900000D03*
%TD*%
D10*
%TO.P,H1,1*%
%TO.N,N/C*%
X16000000Y-16000000D03*
%TD*%
%TO.P,H4,1*%
%TO.N,N/C*%
X193500000Y-131500000D03*
%TD*%
%TO.P,H2,1*%
%TO.N,N/C*%
X194000000Y-16000000D03*
%TD*%
D28*
%TO.P,U6,1,IN+*%
%TO.N,+BATT*%
X178984156Y-37522799D03*
D29*
X176390131Y-37522799D03*
D11*
%TO.N,N/C*%
X176511148Y-41918656D03*
X191973267Y-57158934D03*
D30*
%TO.P,U6,2,IN-*%
%TO.N,-BATT*%
X192415343Y-37476517D03*
D31*
X189693405Y-37458331D03*
D32*
%TO.P,U6,3,OUT+*%
%TO.N,/5V Reg1*%
X178954467Y-60690858D03*
D33*
X176371231Y-60690859D03*
D34*
%TO.P,U6,4,Out-*%
%TO.N,/5V GND*%
X192310034Y-60806094D03*
D35*
X189668639Y-60683226D03*
%TD*%
D26*
%TO.P,J4,1,Pin_1*%
%TO.N,/19V*%
X147750000Y-131150000D03*
D27*
%TO.P,J4,2,Pin_2*%
%TO.N,/19V GND*%
X150250000Y-131150000D03*
%TD*%
D36*
%TO.P,J1,1,Pin_1*%
%TO.N,+BATT*%
X103750000Y-16500000D03*
D37*
%TO.P,J1,2,Pin_2*%
%TO.N,-BATT*%
X109250000Y-16500000D03*
%TD*%
D11*
%TO.P,U2,1,IN+*%
%TO.N,N/C*%
X83000000Y-30500000D03*
D12*
%TO.N,+BATT*%
X82000000Y-37000000D03*
D11*
%TO.N,N/C*%
X61000000Y-84500000D03*
D12*
%TO.P,U2,2,IN-*%
%TO.N,-BATT*%
X64500000Y-37000000D03*
%TO.P,U2,3,OUT+*%
%TO.N,/12V Reg2*%
X82000000Y-75000000D03*
%TO.P,U2,4,Out-*%
%TO.N,/Reg2 GND*%
X64500000Y-75000000D03*
%TD*%
D38*
%TO.N,/5V GND*%
X196500000Y-103000000D03*
%TO.N,-BATT*%
X23500000Y-26000000D03*
X123000000Y-14000000D03*
X65500000Y-26000000D03*
X81500000Y-25500000D03*
X183000000Y-26000000D03*
X156000000Y-26000000D03*
X18000000Y-35500000D03*
X194500000Y-35000000D03*
X119500000Y-16500000D03*
X92500000Y-19000000D03*
X139000000Y-25000000D03*
X170000000Y-26500000D03*
X127000000Y-26000000D03*
X124000000Y-16500000D03*
X94000000Y-14000000D03*
X41000000Y-25500000D03*
X116000000Y-25000000D03*
X103000000Y-25000000D03*
X129000000Y-36000000D03*
X56000000Y-36000000D03*
X93500000Y-36000000D03*
X91000000Y-16500000D03*
X163000000Y-35000000D03*
X120500000Y-20000000D03*
%TO.N,/Reg3 GND*%
X104000000Y-81500000D03*
X105500000Y-97000000D03*
X125500000Y-60500000D03*
X109000000Y-127500000D03*
X125000000Y-75500000D03*
%TO.N,/Reg1 GND*%
X59500000Y-104500000D03*
X18000000Y-75000000D03*
X17500000Y-100500000D03*
X52000000Y-60000000D03*
X41500000Y-103500000D03*
X54500000Y-75000000D03*
X30500000Y-125500000D03*
%TO.N,/19V GND*%
X156000000Y-128500000D03*
X160500000Y-76500000D03*
X138500000Y-85000000D03*
X132500000Y-76000000D03*
X161500000Y-62000000D03*
D39*
%TO.N,/LiDAR GND*%
X74000000Y-104500000D03*
X68000000Y-112000000D03*
D38*
%TO.N,/5V GND*%
X194500000Y-74000000D03*
X171000000Y-115500000D03*
X190500000Y-105500000D03*
X174500000Y-128000000D03*
X187500000Y-113000000D03*
X193500000Y-66000000D03*
X172500000Y-80500000D03*
X193000000Y-103000000D03*
X193000000Y-116000000D03*
X196500000Y-116000000D03*
D39*
%TO.N,/LiDAR Wire*%
X74500000Y-94500000D03*
X69000000Y-97500000D03*
D38*
%TO.N,/Reg2 GND*%
X85000000Y-115500000D03*
X66500000Y-103000000D03*
X90500000Y-61500000D03*
X90000000Y-76000000D03*
X66500000Y-82000000D03*
%TO.N,Net-(J7-CC2)*%
X189000000Y-107500000D03*
X189000000Y-111000000D03*
%TD*%
D40*
%TO.N,+BATT*%
X93500000Y-22500000D02*
X86000000Y-15000000D01*
X86000000Y-15000000D02*
X81500000Y-15000000D01*
X99500000Y-16500000D02*
X93500000Y-22500000D01*
X104500000Y-16500000D02*
X99500000Y-16500000D01*
X110000000Y-22000000D02*
X104500000Y-16500000D01*
%TO.N,-BATT*%
X119000000Y-16000000D02*
X119500000Y-16500000D01*
X109750000Y-16000000D02*
X119000000Y-16000000D01*
X109250000Y-16500000D02*
X109750000Y-16000000D01*
D41*
%TO.N,/Reg1 GND*%
X34850000Y-125500000D02*
X30500000Y-125500000D01*
X36500000Y-127150000D02*
X34850000Y-125500000D01*
X37000000Y-127150000D02*
X36500000Y-127150000D01*
%TO.N,/12V Reg1*%
X39000000Y-125900000D02*
X23100000Y-110000000D01*
X23100000Y-110000000D02*
X16500000Y-110000000D01*
X39000000Y-127150000D02*
X39000000Y-125900000D01*
%TO.N,/LiDAR On Pin*%
X41000000Y-125087500D02*
X52587500Y-113500000D01*
X41000000Y-127150000D02*
X41000000Y-125087500D01*
%TO.N,/Reg3 GND*%
X113650000Y-127500000D02*
X109000000Y-127500000D01*
X114000000Y-127150000D02*
X113650000Y-127500000D01*
X114000000Y-126750000D02*
X114000000Y-127150000D01*
%TO.N,/12V Reg3*%
X119000000Y-75432000D02*
X119000000Y-74000000D01*
X116000000Y-126750000D02*
X116000000Y-78432000D01*
X116000000Y-78432000D02*
X119000000Y-75432000D01*
D42*
%TO.N,/5V Reg1*%
X194160000Y-110840000D02*
X192157500Y-110840000D01*
X194500000Y-110500000D02*
X194160000Y-110840000D01*
X194500000Y-107800000D02*
X194500000Y-110500000D01*
X194500000Y-107800000D02*
X192157500Y-107800000D01*
D43*
%TO.N,/5V GND*%
X192157500Y-113560000D02*
X192237500Y-113640000D01*
D42*
X192157500Y-112070000D02*
X192157500Y-113560000D01*
%TO.N,/5V Reg1*%
X178500000Y-116500000D02*
X178500000Y-113500000D01*
X190000000Y-116500000D02*
X178500000Y-116500000D01*
X190000000Y-111500000D02*
X190000000Y-116500000D01*
X190660000Y-110840000D02*
X190000000Y-111500000D01*
X192157500Y-110840000D02*
X190660000Y-110840000D01*
%TO.N,Net-(J7-CC1)*%
X180820000Y-109820000D02*
X192157500Y-109820000D01*
X180325000Y-109325000D02*
X180820000Y-109820000D01*
X180325000Y-105000000D02*
X180325000Y-109325000D01*
%TO.N,Net-(J7-CC2)*%
X190320000Y-108820000D02*
X192157500Y-108820000D01*
X189000000Y-107500000D02*
X190320000Y-108820000D01*
X184500000Y-111000000D02*
X189000000Y-111000000D01*
X182000000Y-113500000D02*
X184500000Y-111000000D01*
X180325000Y-113500000D02*
X182000000Y-113500000D01*
%TO.N,/5V GND*%
X196037500Y-115537500D02*
X196500000Y-116000000D01*
X196037500Y-113640000D02*
X196037500Y-115537500D01*
X192237500Y-115237500D02*
X193000000Y-116000000D01*
X192237500Y-113640000D02*
X192237500Y-115237500D01*
X192237500Y-103762500D02*
X193000000Y-103000000D01*
X192237500Y-105000000D02*
X192237500Y-103762500D01*
X196037500Y-103462500D02*
X196500000Y-103000000D01*
X196037500Y-105000000D02*
X196037500Y-103462500D01*
%TO.N,/5V Reg1*%
X171500000Y-105000000D02*
X178500000Y-105000000D01*
X171500000Y-113500000D02*
X178500000Y-113500000D01*
X171500000Y-105000000D02*
X171500000Y-113500000D01*
X179626000Y-90874000D02*
X171500000Y-99000000D01*
X186657778Y-68342222D02*
X187874000Y-69558444D01*
X187874000Y-69558444D02*
X187874000Y-90874000D01*
X187874000Y-90874000D02*
X179626000Y-90874000D01*
X171500000Y-99000000D02*
X171500000Y-105000000D01*
%TO.N,-BATT*%
X56058000Y-35942000D02*
X56000000Y-36000000D01*
D40*
X24442000Y-35442000D02*
X18058000Y-35442000D01*
D42*
X192412154Y-34587846D02*
X192500000Y-34500000D01*
D40*
X192500000Y-34500000D02*
X194000000Y-34500000D01*
D42*
X189681088Y-34818912D02*
X190000000Y-34500000D01*
D40*
X65000000Y-36000000D02*
X64725000Y-36275000D01*
D42*
X18058000Y-35442000D02*
X18000000Y-35500000D01*
D40*
X192412154Y-37544380D02*
X192412154Y-34587846D01*
X101442000Y-35942000D02*
X93558000Y-35942000D01*
X194000000Y-34500000D02*
X194500000Y-35000000D01*
X26087500Y-36912500D02*
X25912500Y-36912500D01*
X64725000Y-36275000D02*
X64725000Y-36775000D01*
X189681088Y-37572474D02*
X189681088Y-34818912D01*
X190000000Y-34500000D02*
X192500000Y-34500000D01*
X64725000Y-36775000D02*
X63892000Y-35942000D01*
D42*
X93558000Y-35942000D02*
X93500000Y-36000000D01*
D40*
X137000000Y-36000000D02*
X136942000Y-35942000D01*
X101500000Y-36000000D02*
X101442000Y-35942000D01*
X25912500Y-36912500D02*
X24442000Y-35442000D01*
D42*
X129058000Y-35942000D02*
X129000000Y-36000000D01*
D40*
X136942000Y-35942000D02*
X129058000Y-35942000D01*
X63892000Y-35942000D02*
X56058000Y-35942000D01*
%TO.N,+BATT*%
X45500000Y-15000000D02*
X32500000Y-28000000D01*
X81500000Y-15000000D02*
X45500000Y-15000000D01*
X181857000Y-34643000D02*
X181857000Y-33500000D01*
X181857000Y-31857000D02*
X166000000Y-16000000D01*
X119374000Y-35874000D02*
X109000000Y-25500000D01*
X154000000Y-17500000D02*
X147000000Y-24500000D01*
D42*
X44442000Y-35442000D02*
X44500000Y-35500000D01*
X43874000Y-35442000D02*
X44442000Y-35442000D01*
D40*
X178982617Y-37517383D02*
X181857000Y-34643000D01*
X130000000Y-16000000D02*
X154000000Y-16000000D01*
X147000000Y-24500000D02*
X147000000Y-29068000D01*
X81500000Y-15000000D02*
X75588509Y-15000000D01*
X109000000Y-23000000D02*
X110000000Y-22000000D01*
X75588509Y-15000000D02*
X75588509Y-29588509D01*
X119374000Y-35942000D02*
X119374000Y-35874000D01*
X166000000Y-16000000D02*
X154000000Y-16000000D01*
X110000000Y-22000000D02*
X124000000Y-22000000D01*
X176000000Y-37115311D02*
X176402072Y-37517383D01*
X75588509Y-29588509D02*
X82500000Y-36500000D01*
X176000000Y-33500000D02*
X176000000Y-37115311D01*
X154000000Y-16000000D02*
X154000000Y-17500000D01*
X109000000Y-25500000D02*
X109000000Y-23000000D01*
X181857000Y-33500000D02*
X176000000Y-33500000D01*
X181857000Y-33500000D02*
X181857000Y-31857000D01*
X39942000Y-35442000D02*
X43874000Y-35442000D01*
X147000000Y-29068000D02*
X153874000Y-35942000D01*
X124000000Y-22000000D02*
X130000000Y-16000000D01*
X32500000Y-28000000D02*
X39942000Y-35442000D01*
D41*
%TO.N,/Reg3 GND*%
X103372000Y-80872000D02*
X104000000Y-81500000D01*
X103372000Y-75872000D02*
X103372000Y-80872000D01*
X101500000Y-74000000D02*
X103372000Y-75872000D01*
%TO.N,/Reg1 GND*%
X26775000Y-74225000D02*
X26000000Y-75000000D01*
X59850000Y-104150000D02*
X59500000Y-104500000D01*
X59850000Y-99270000D02*
X59850000Y-104150000D01*
X16500000Y-101500000D02*
X17500000Y-100500000D01*
X16500000Y-107500000D02*
X16500000Y-101500000D01*
X26000000Y-75000000D02*
X18000000Y-75000000D01*
%TO.N,/12V Reg1*%
X17835000Y-110000000D02*
X43874000Y-83961000D01*
X16500000Y-110000000D02*
X17835000Y-110000000D01*
X43874000Y-83961000D02*
X43874000Y-74558000D01*
%TO.N,/19V GND*%
X150250000Y-131150000D02*
X153350000Y-131150000D01*
X133442000Y-75058000D02*
X132500000Y-76000000D01*
X137000000Y-74000000D02*
X135942000Y-75058000D01*
X153350000Y-131150000D02*
X156000000Y-128500000D01*
X135942000Y-75058000D02*
X133442000Y-75058000D01*
%TO.N,/19V*%
X147750000Y-131150000D02*
X147750000Y-81182000D01*
X147750000Y-81182000D02*
X153874000Y-75058000D01*
%TO.N,/12V Reg2*%
X82225000Y-74747766D02*
X81974388Y-74497154D01*
X82225000Y-80655000D02*
X82225000Y-74747766D01*
X66150000Y-96730000D02*
X71440000Y-91440000D01*
X71250000Y-91630000D02*
X71440000Y-91440000D01*
X71440000Y-91440000D02*
X82225000Y-80655000D01*
X71250000Y-131150000D02*
X71250000Y-91630000D01*
%TO.N,/LiDAR GND*%
X81460000Y-97040000D02*
X74000000Y-104500000D01*
X68750000Y-113750000D02*
X68750000Y-131150000D01*
X84500000Y-97040000D02*
X81460000Y-97040000D01*
X68000000Y-113000000D02*
X68750000Y-113750000D01*
X68000000Y-112000000D02*
X68000000Y-113000000D01*
D42*
%TO.N,/5V Reg1*%
X176356265Y-66356265D02*
X176356265Y-60764055D01*
X178991993Y-60676437D02*
X186657778Y-68342222D01*
D43*
X192748000Y-110840000D02*
X193120000Y-110840000D01*
D42*
X178342222Y-68342222D02*
X176356265Y-66356265D01*
X186657778Y-68342222D02*
X178342222Y-68342222D01*
%TO.N,/5V GND*%
X192296841Y-65796841D02*
X192296841Y-64500000D01*
D44*
X189640079Y-61843238D02*
X189640079Y-60672443D01*
D43*
X193120000Y-113560000D02*
X193200000Y-113640000D01*
D42*
X192500000Y-66000000D02*
X193500000Y-66000000D01*
X192296841Y-65796841D02*
X192500000Y-66000000D01*
X192296841Y-64500000D02*
X189640079Y-61843238D01*
X192296841Y-60672443D02*
X192296841Y-65796841D01*
D41*
%TO.N,/LiDAR Wire*%
X84500000Y-94500000D02*
X74500000Y-94500000D01*
X68500000Y-98000000D02*
X66150000Y-98000000D01*
X69000000Y-97500000D02*
X68500000Y-98000000D01*
%TO.N,/Reg2 GND*%
X66150000Y-99270000D02*
X66150000Y-102650000D01*
X66150000Y-102650000D02*
X66500000Y-103000000D01*
X64725000Y-80225000D02*
X66500000Y-82000000D01*
X64725000Y-74275000D02*
X64725000Y-80225000D01*
X65000000Y-74000000D02*
X64725000Y-74275000D01*
D43*
%TO.N,Net-(U4-Anode)*%
X54412500Y-102167500D02*
X59850000Y-96730000D01*
X54412500Y-113500000D02*
X54412500Y-102167500D01*
%TD*%
%TA.AperFunction,Conductor*%
%TO.N,/Reg2 GND*%
G36*
X92937539Y-40519685D02*
G01*
X92983294Y-40572489D01*
X92994500Y-40624000D01*
X92994500Y-134875500D01*
X92974815Y-134942539D01*
X92922011Y-134988294D01*
X92870500Y-134999500D01*
X62624000Y-134999500D01*
X62556961Y-134979815D01*
X62511206Y-134927011D01*
X62500000Y-134875500D01*
X62500000Y-96473386D01*
X65049500Y-96473386D01*
X65049500Y-96986613D01*
X65055913Y-97057192D01*
X65055913Y-97057194D01*
X65055914Y-97057196D01*
X65106522Y-97219606D01*
X65131790Y-97261405D01*
X65155636Y-97300850D01*
X65173472Y-97368405D01*
X65155636Y-97429150D01*
X65106522Y-97510393D01*
X65055913Y-97672807D01*
X65049500Y-97743386D01*
X65049500Y-98256613D01*
X65055913Y-98327192D01*
X65055913Y-98327194D01*
X65055914Y-98327196D01*
X65074409Y-98386549D01*
X65106522Y-98489606D01*
X65194530Y-98635188D01*
X65314811Y-98755469D01*
X65314813Y-98755470D01*
X65314815Y-98755472D01*
X65460394Y-98843478D01*
X65622804Y-98894086D01*
X65693384Y-98900500D01*
X65693387Y-98900500D01*
X66606613Y-98900500D01*
X66606616Y-98900500D01*
X66677196Y-98894086D01*
X66839606Y-98843478D01*
X66852170Y-98835882D01*
X66916319Y-98818000D01*
X68580567Y-98818000D01*
X68580568Y-98817999D01*
X68738602Y-98786565D01*
X68813666Y-98755472D01*
X68887468Y-98724903D01*
X69021445Y-98635382D01*
X69511238Y-98145586D01*
X69511243Y-98145583D01*
X69521443Y-98135382D01*
X69521445Y-98135382D01*
X69635382Y-98021445D01*
X69658686Y-97986567D01*
X69671236Y-97967784D01*
X69671238Y-97967780D01*
X69720325Y-97894319D01*
X69724903Y-97887468D01*
X69786565Y-97738602D01*
X69799653Y-97672804D01*
X69818000Y-97580566D01*
X69818000Y-97419434D01*
X69786565Y-97261398D01*
X69766698Y-97213435D01*
X69753677Y-97182000D01*
X69724905Y-97112536D01*
X69724903Y-97112531D01*
X69635382Y-96978555D01*
X69635379Y-96978551D01*
X69521448Y-96864620D01*
X69521444Y-96864617D01*
X69387466Y-96775095D01*
X69387464Y-96775094D01*
X69238603Y-96713435D01*
X69238594Y-96713432D01*
X69080570Y-96682000D01*
X69080566Y-96682000D01*
X68919434Y-96682000D01*
X68919433Y-96682000D01*
X68874803Y-96690877D01*
X68830173Y-96699755D01*
X68775077Y-96710714D01*
X68761397Y-96713435D01*
X68761396Y-96713435D01*
X68612536Y-96775094D01*
X68612529Y-96775098D01*
X68559448Y-96810565D01*
X68559449Y-96810566D01*
X68478556Y-96864616D01*
X68421587Y-96921585D01*
X68364618Y-96978555D01*
X68197492Y-97145681D01*
X68136169Y-97179166D01*
X68109811Y-97182000D01*
X67368524Y-97182000D01*
X67301485Y-97162315D01*
X67255730Y-97109511D01*
X67245033Y-97046779D01*
X67250500Y-96986614D01*
X67250500Y-96837688D01*
X67270185Y-96770649D01*
X67286819Y-96750007D01*
X70220319Y-93816507D01*
X70281642Y-93783022D01*
X70351334Y-93788006D01*
X70407267Y-93829878D01*
X70431684Y-93895342D01*
X70432000Y-93904188D01*
X70432000Y-129861820D01*
X70423093Y-129892151D01*
X70415886Y-129922948D01*
X70413151Y-129926009D01*
X70412315Y-129928859D01*
X70394294Y-129950867D01*
X70387988Y-129956977D01*
X70370208Y-129969896D01*
X70230722Y-130109381D01*
X70230011Y-130110071D01*
X70199920Y-130125893D01*
X70170075Y-130142190D01*
X70169066Y-130142117D01*
X70168170Y-130142589D01*
X70134308Y-130139632D01*
X70100383Y-130137206D01*
X70099572Y-130136598D01*
X70098565Y-130136511D01*
X70071679Y-130115718D01*
X70044450Y-130095334D01*
X70043480Y-130093909D01*
X70043296Y-130093767D01*
X70043200Y-130093498D01*
X70038178Y-130086120D01*
X69942712Y-129931344D01*
X69818657Y-129807289D01*
X69818656Y-129807288D01*
X69669334Y-129715186D01*
X69669332Y-129715185D01*
X69669329Y-129715184D01*
X69652993Y-129709771D01*
X69595549Y-129669997D01*
X69568728Y-129605481D01*
X69568000Y-129592066D01*
X69568000Y-113669433D01*
X69567999Y-113669429D01*
X69536566Y-113511405D01*
X69536565Y-113511398D01*
X69505733Y-113436965D01*
X69474903Y-113362533D01*
X69385381Y-113228554D01*
X69271445Y-113114618D01*
X68854319Y-112697492D01*
X68820834Y-112636169D01*
X68818000Y-112609811D01*
X68818000Y-111919433D01*
X68817999Y-111919429D01*
X68786566Y-111761405D01*
X68786565Y-111761398D01*
X68755733Y-111686965D01*
X68724903Y-111612533D01*
X68635380Y-111478552D01*
X68521447Y-111364619D01*
X68387466Y-111275096D01*
X68238602Y-111213435D01*
X68238594Y-111213433D01*
X68080570Y-111182000D01*
X68080566Y-111182000D01*
X67919434Y-111182000D01*
X67919429Y-111182000D01*
X67761405Y-111213433D01*
X67761397Y-111213435D01*
X67612533Y-111275096D01*
X67478552Y-111364619D01*
X67364619Y-111478552D01*
X67275096Y-111612533D01*
X67213435Y-111761397D01*
X67213433Y-111761405D01*
X67182000Y-111919429D01*
X67182000Y-113080570D01*
X67213433Y-113238594D01*
X67213436Y-113238606D01*
X67275093Y-113387461D01*
X67275100Y-113387474D01*
X67364617Y-113521444D01*
X67364620Y-113521448D01*
X67895681Y-114052508D01*
X67929166Y-114113831D01*
X67932000Y-114140189D01*
X67932000Y-129592066D01*
X67912315Y-129659105D01*
X67859511Y-129704860D01*
X67847007Y-129709771D01*
X67830670Y-129715184D01*
X67830663Y-129715187D01*
X67681342Y-129807289D01*
X67557289Y-129931342D01*
X67465187Y-130080663D01*
X67465185Y-130080668D01*
X67444823Y-130142117D01*
X67410001Y-130247203D01*
X67410001Y-130247204D01*
X67410000Y-130247204D01*
X67399500Y-130349983D01*
X67399500Y-131950001D01*
X67399501Y-131950018D01*
X67410000Y-132052796D01*
X67410001Y-132052799D01*
X67455894Y-132191294D01*
X67465186Y-132219334D01*
X67557288Y-132368656D01*
X67681344Y-132492712D01*
X67830666Y-132584814D01*
X67997203Y-132639999D01*
X68099991Y-132650500D01*
X69400008Y-132650499D01*
X69502797Y-132639999D01*
X69669334Y-132584814D01*
X69818656Y-132492712D01*
X69942712Y-132368656D01*
X70034814Y-132219334D01*
X70034814Y-132219331D01*
X70038178Y-132213879D01*
X70090126Y-132167154D01*
X70159088Y-132155931D01*
X70223170Y-132183774D01*
X70231398Y-132191294D01*
X70370213Y-132330109D01*
X70542179Y-132455048D01*
X70542181Y-132455049D01*
X70542184Y-132455051D01*
X70731588Y-132551557D01*
X70933757Y-132617246D01*
X71143713Y-132650500D01*
X71143714Y-132650500D01*
X71356286Y-132650500D01*
X71356287Y-132650500D01*
X71566243Y-132617246D01*
X71768412Y-132551557D01*
X71957816Y-132455051D01*
X71979789Y-132439086D01*
X72129786Y-132330109D01*
X72129788Y-132330106D01*
X72129792Y-132330104D01*
X72280104Y-132179792D01*
X72280106Y-132179788D01*
X72280109Y-132179786D01*
X72405048Y-132007820D01*
X72405047Y-132007820D01*
X72405051Y-132007816D01*
X72501557Y-131818412D01*
X72567246Y-131616243D01*
X72600500Y-131406287D01*
X72600500Y-130893713D01*
X72567246Y-130683757D01*
X72501557Y-130481588D01*
X72405051Y-130292184D01*
X72405049Y-130292181D01*
X72405048Y-130292179D01*
X72280109Y-130120213D01*
X72129794Y-129969898D01*
X72129788Y-129969893D01*
X72119112Y-129962136D01*
X72076448Y-129906805D01*
X72068000Y-129861820D01*
X72068000Y-104419429D01*
X73182000Y-104419429D01*
X73182000Y-104580570D01*
X73213433Y-104738594D01*
X73213436Y-104738606D01*
X73275093Y-104887461D01*
X73275100Y-104887474D01*
X73364617Y-105021444D01*
X73364620Y-105021448D01*
X73478551Y-105135379D01*
X73478555Y-105135382D01*
X73612532Y-105224903D01*
X73686963Y-105255732D01*
X73686964Y-105255733D01*
X73686965Y-105255733D01*
X73761398Y-105286565D01*
X73919429Y-105317999D01*
X73919433Y-105318000D01*
X73919434Y-105318000D01*
X74080567Y-105318000D01*
X74080568Y-105317999D01*
X74238602Y-105286565D01*
X74313035Y-105255733D01*
X74387468Y-105224903D01*
X74521445Y-105135382D01*
X81762508Y-97894319D01*
X81823831Y-97860834D01*
X81850189Y-97858000D01*
X83187624Y-97858000D01*
X83254663Y-97877685D01*
X83287940Y-97909112D01*
X83344214Y-97986566D01*
X83505934Y-98148286D01*
X83690962Y-98282717D01*
X83894742Y-98386548D01*
X83894744Y-98386549D01*
X84112251Y-98457221D01*
X84112252Y-98457221D01*
X84112255Y-98457222D01*
X84338146Y-98493000D01*
X84338147Y-98493000D01*
X84661853Y-98493000D01*
X84661854Y-98493000D01*
X84887745Y-98457222D01*
X84887748Y-98457221D01*
X84887749Y-98457221D01*
X85105255Y-98386549D01*
X85105255Y-98386548D01*
X85105258Y-98386548D01*
X85309038Y-98282717D01*
X85494066Y-98148286D01*
X85655786Y-97986566D01*
X85790217Y-97801538D01*
X85894048Y-97597758D01*
X85951989Y-97419433D01*
X85964721Y-97380249D01*
X85964721Y-97380248D01*
X85964722Y-97380245D01*
X86000500Y-97154354D01*
X86000500Y-96925646D01*
X85964722Y-96699755D01*
X85964721Y-96699751D01*
X85964721Y-96699750D01*
X85894049Y-96482244D01*
X85854497Y-96404619D01*
X85790217Y-96278462D01*
X85657472Y-96095755D01*
X85633994Y-96029953D01*
X85649819Y-95961899D01*
X85699925Y-95913204D01*
X85714455Y-95906692D01*
X85742331Y-95896296D01*
X85857546Y-95810046D01*
X85943796Y-95694831D01*
X85994091Y-95559983D01*
X86000500Y-95500373D01*
X86000499Y-93499628D01*
X85994091Y-93440017D01*
X85943796Y-93305169D01*
X85943795Y-93305168D01*
X85943793Y-93305164D01*
X85857547Y-93189955D01*
X85857544Y-93189952D01*
X85742335Y-93103706D01*
X85742328Y-93103702D01*
X85607482Y-93053408D01*
X85607483Y-93053408D01*
X85547883Y-93047001D01*
X85547881Y-93047000D01*
X85547873Y-93047000D01*
X85547864Y-93047000D01*
X83452129Y-93047000D01*
X83452123Y-93047001D01*
X83392516Y-93053408D01*
X83257671Y-93103702D01*
X83257664Y-93103706D01*
X83142455Y-93189952D01*
X83142452Y-93189955D01*
X83056206Y-93305164D01*
X83056202Y-93305171D01*
X83005908Y-93440017D01*
X82999501Y-93499616D01*
X82999501Y-93499623D01*
X82999500Y-93499635D01*
X82999500Y-93558000D01*
X82979815Y-93625039D01*
X82927011Y-93670794D01*
X82875500Y-93682000D01*
X74419429Y-93682000D01*
X74261405Y-93713433D01*
X74261397Y-93713435D01*
X74112533Y-93775096D01*
X73978552Y-93864619D01*
X73864619Y-93978552D01*
X73775096Y-94112533D01*
X73713435Y-94261397D01*
X73713433Y-94261405D01*
X73682000Y-94419429D01*
X73682000Y-94580570D01*
X73713433Y-94738594D01*
X73713435Y-94738602D01*
X73775096Y-94887466D01*
X73864619Y-95021447D01*
X73978552Y-95135380D01*
X74112533Y-95224903D01*
X74186965Y-95255733D01*
X74261398Y-95286565D01*
X74419429Y-95317999D01*
X74419433Y-95318000D01*
X74419434Y-95318000D01*
X74580566Y-95318000D01*
X82875501Y-95318000D01*
X82942540Y-95337685D01*
X82988295Y-95390489D01*
X82999501Y-95442000D01*
X82999501Y-95500376D01*
X83005908Y-95559983D01*
X83056202Y-95694828D01*
X83056206Y-95694835D01*
X83142452Y-95810044D01*
X83142455Y-95810047D01*
X83257664Y-95896293D01*
X83257669Y-95896296D01*
X83285539Y-95906690D01*
X83306012Y-95922016D01*
X83328627Y-95933949D01*
X83333514Y-95942603D01*
X83341473Y-95948561D01*
X83350411Y-95972523D01*
X83362984Y-95994787D01*
X83362416Y-96004709D01*
X83365891Y-96014024D01*
X83360455Y-96039011D01*
X83358996Y-96064543D01*
X83352030Y-96077743D01*
X83351040Y-96082298D01*
X83342525Y-96095758D01*
X83287942Y-96170885D01*
X83232612Y-96213551D01*
X83187624Y-96222000D01*
X81379429Y-96222000D01*
X81221405Y-96253433D01*
X81221397Y-96253435D01*
X81072533Y-96315096D01*
X80938552Y-96404619D01*
X73364620Y-103978551D01*
X73364617Y-103978555D01*
X73275100Y-104112526D01*
X73275098Y-104112530D01*
X73275097Y-104112532D01*
X73252044Y-104168189D01*
X73213435Y-104261397D01*
X73213433Y-104261405D01*
X73182000Y-104419429D01*
X72068000Y-104419429D01*
X72068000Y-92020189D01*
X72087685Y-91953150D01*
X72104319Y-91932508D01*
X82860382Y-81176445D01*
X82949902Y-81042469D01*
X82967962Y-80998866D01*
X83011565Y-80893602D01*
X83043000Y-80735566D01*
X83043000Y-77662388D01*
X83062685Y-77595349D01*
X83115489Y-77549594D01*
X83136700Y-77542146D01*
X83164683Y-77535096D01*
X83369626Y-77442007D01*
X83554654Y-77313819D01*
X83713819Y-77154654D01*
X83842007Y-76969626D01*
X83935096Y-76764683D01*
X83990096Y-76546412D01*
X84000500Y-76414217D01*
X84000499Y-73585784D01*
X83990096Y-73453588D01*
X83935096Y-73235317D01*
X83842007Y-73030374D01*
X83713819Y-72845346D01*
X83554654Y-72686181D01*
X83554650Y-72686178D01*
X83554645Y-72686174D01*
X83369632Y-72557997D01*
X83369630Y-72557995D01*
X83369626Y-72557993D01*
X83320667Y-72535755D01*
X83164681Y-72464903D01*
X83164678Y-72464902D01*
X82946420Y-72409905D01*
X82946413Y-72409904D01*
X82902347Y-72406436D01*
X82814217Y-72399500D01*
X82814215Y-72399500D01*
X81185791Y-72399500D01*
X81185776Y-72399501D01*
X81053586Y-72409904D01*
X81053579Y-72409905D01*
X80835321Y-72464902D01*
X80835318Y-72464903D01*
X80630377Y-72557991D01*
X80630367Y-72557997D01*
X80445354Y-72686174D01*
X80445342Y-72686184D01*
X80286184Y-72845342D01*
X80286174Y-72845354D01*
X80157997Y-73030367D01*
X80157991Y-73030377D01*
X80064903Y-73235318D01*
X80064902Y-73235321D01*
X80009905Y-73453579D01*
X80009904Y-73453586D01*
X79999500Y-73585777D01*
X79999500Y-76414208D01*
X79999501Y-76414223D01*
X80009904Y-76546413D01*
X80009905Y-76546420D01*
X80064902Y-76764678D01*
X80064903Y-76764681D01*
X80157991Y-76969622D01*
X80157997Y-76969632D01*
X80286174Y-77154645D01*
X80286178Y-77154650D01*
X80286181Y-77154654D01*
X80445346Y-77313819D01*
X80445350Y-77313822D01*
X80445354Y-77313825D01*
X80584603Y-77410297D01*
X80630374Y-77442007D01*
X80835317Y-77535096D01*
X80835321Y-77535097D01*
X81053579Y-77590094D01*
X81053581Y-77590094D01*
X81053588Y-77590096D01*
X81185783Y-77600500D01*
X81283000Y-77600499D01*
X81350038Y-77620183D01*
X81395794Y-77672986D01*
X81407000Y-77724499D01*
X81407000Y-80264811D01*
X81387315Y-80331850D01*
X81370681Y-80352492D01*
X70811687Y-90911485D01*
X70811684Y-90911488D01*
X70614618Y-91108555D01*
X65929992Y-95793181D01*
X65868669Y-95826666D01*
X65842311Y-95829500D01*
X65693384Y-95829500D01*
X65674145Y-95831248D01*
X65622807Y-95835913D01*
X65460393Y-95886522D01*
X65314811Y-95974530D01*
X65194530Y-96094811D01*
X65106522Y-96240393D01*
X65055913Y-96402807D01*
X65049500Y-96473386D01*
X62500000Y-96473386D01*
X62500000Y-86815369D01*
X62519685Y-86748330D01*
X62558033Y-86710372D01*
X62565164Y-86705892D01*
X62802304Y-86516779D01*
X63016779Y-86302304D01*
X63205892Y-86065164D01*
X63367265Y-85808341D01*
X63498868Y-85535065D01*
X63599046Y-85248772D01*
X63666540Y-84953063D01*
X63700500Y-84651657D01*
X63700500Y-84348343D01*
X63673489Y-84108612D01*
X63666542Y-84046951D01*
X63666541Y-84046946D01*
X63666540Y-84046937D01*
X63599046Y-83751228D01*
X63498868Y-83464935D01*
X63367265Y-83191659D01*
X63205892Y-82934836D01*
X63016779Y-82697696D01*
X62802304Y-82483221D01*
X62565164Y-82294108D01*
X62558020Y-82289619D01*
X62511733Y-82237281D01*
X62500000Y-82184630D01*
X62500000Y-40624000D01*
X62519685Y-40556961D01*
X62572489Y-40511206D01*
X62624000Y-40500000D01*
X92870500Y-40500000D01*
X92937539Y-40519685D01*
G37*
%TD.AperFunction*%
%TD*%
%TA.AperFunction,Conductor*%
%TO.N,-BATT*%
G36*
X192116593Y-13020185D02*
G01*
X192162348Y-13072989D01*
X192172292Y-13142147D01*
X192143267Y-13205703D01*
X192118445Y-13227602D01*
X192001710Y-13305601D01*
X192001696Y-13305611D01*
X191747222Y-13514453D01*
X191514453Y-13747222D01*
X191305611Y-14001696D01*
X191305601Y-14001710D01*
X191122718Y-14275414D01*
X191122707Y-14275432D01*
X190967535Y-14565741D01*
X190967528Y-14565755D01*
X190841552Y-14869887D01*
X190745987Y-15184922D01*
X190745984Y-15184933D01*
X190681768Y-15507781D01*
X190681765Y-15507798D01*
X190649500Y-15835403D01*
X190649500Y-16164596D01*
X190681765Y-16492201D01*
X190681768Y-16492218D01*
X190745984Y-16815066D01*
X190745987Y-16815077D01*
X190841552Y-17130112D01*
X190967528Y-17434244D01*
X190967535Y-17434258D01*
X191122707Y-17724567D01*
X191122718Y-17724585D01*
X191305601Y-17998289D01*
X191305611Y-17998303D01*
X191514453Y-18252777D01*
X191747222Y-18485546D01*
X191747227Y-18485550D01*
X191747228Y-18485551D01*
X192001702Y-18694393D01*
X192275421Y-18877286D01*
X192565749Y-19032469D01*
X192869889Y-19158448D01*
X193184913Y-19254010D01*
X193184919Y-19254011D01*
X193184922Y-19254012D01*
X193184933Y-19254015D01*
X193365361Y-19289903D01*
X193507787Y-19318233D01*
X193835400Y-19350500D01*
X193835403Y-19350500D01*
X194164597Y-19350500D01*
X194164600Y-19350500D01*
X194492213Y-19318233D01*
X194669760Y-19282916D01*
X194815066Y-19254015D01*
X194815077Y-19254012D01*
X194815077Y-19254011D01*
X194815087Y-19254010D01*
X195130111Y-19158448D01*
X195434251Y-19032469D01*
X195724579Y-18877286D01*
X195998298Y-18694393D01*
X196252772Y-18485551D01*
X196485551Y-18252772D01*
X196694393Y-17998298D01*
X196772398Y-17881554D01*
X196826010Y-17836750D01*
X196895335Y-17828043D01*
X196958362Y-17858197D01*
X196995082Y-17917640D01*
X196999500Y-17950446D01*
X196999500Y-39376000D01*
X196979815Y-39443039D01*
X196927011Y-39488794D01*
X196875500Y-39500000D01*
X180155105Y-39500000D01*
X180088066Y-39480315D01*
X180042311Y-39427511D01*
X180032367Y-39358353D01*
X180061392Y-39294797D01*
X180106293Y-39262012D01*
X180147338Y-39244435D01*
X180147338Y-39244434D01*
X180147345Y-39244432D01*
X180324961Y-39124218D01*
X180476616Y-38972563D01*
X180596830Y-38794947D01*
X180681257Y-38597791D01*
X180726847Y-38388220D01*
X180729717Y-38340039D01*
X180729717Y-37943672D01*
X180749402Y-37876633D01*
X180766036Y-37855991D01*
X181881138Y-36740889D01*
X183001517Y-35620510D01*
X183140343Y-35429434D01*
X183247568Y-35218993D01*
X183289275Y-35090631D01*
X183320553Y-34994368D01*
X183336973Y-34890689D01*
X183357500Y-34761097D01*
X183357500Y-31738902D01*
X183320553Y-31505631D01*
X183271282Y-31353993D01*
X183271282Y-31353991D01*
X183247570Y-31281012D01*
X183247568Y-31281006D01*
X183140342Y-31070565D01*
X183136418Y-31065164D01*
X183001517Y-30879490D01*
X166977510Y-14855483D01*
X166786434Y-14716657D01*
X166783547Y-14715186D01*
X166575996Y-14609433D01*
X166351368Y-14536446D01*
X166118097Y-14499500D01*
X166118092Y-14499500D01*
X154118092Y-14499500D01*
X129881908Y-14499500D01*
X129881903Y-14499500D01*
X129648631Y-14536446D01*
X129424003Y-14609433D01*
X129213565Y-14716657D01*
X129022488Y-14855484D01*
X129022487Y-14855485D01*
X123414792Y-20463181D01*
X123353469Y-20496666D01*
X123327111Y-20499500D01*
X110672890Y-20499500D01*
X110605851Y-20479815D01*
X110585209Y-20463181D01*
X105936819Y-15814791D01*
X105903334Y-15753468D01*
X105900500Y-15727110D01*
X105900500Y-15349997D01*
X105900499Y-15349984D01*
X105889999Y-15247204D01*
X105889999Y-15247203D01*
X105834814Y-15080666D01*
X105807539Y-15036447D01*
X105742713Y-14931348D01*
X105742710Y-14931344D01*
X105618655Y-14807289D01*
X105618651Y-14807286D01*
X105469337Y-14715187D01*
X105469335Y-14715186D01*
X105386065Y-14687593D01*
X105302797Y-14660001D01*
X105302795Y-14660000D01*
X105200015Y-14649500D01*
X105200008Y-14649500D01*
X102299992Y-14649500D01*
X102299984Y-14649500D01*
X102197204Y-14660000D01*
X102197203Y-14660001D01*
X102030664Y-14715186D01*
X102030662Y-14715187D01*
X101881348Y-14807286D01*
X101881344Y-14807289D01*
X101757288Y-14931345D01*
X101751583Y-14940596D01*
X101699636Y-14987321D01*
X101646044Y-14999500D01*
X99381903Y-14999500D01*
X99148631Y-15036446D01*
X98924003Y-15109433D01*
X98713565Y-15216657D01*
X98522488Y-15355484D01*
X93587681Y-20290291D01*
X93526358Y-20323776D01*
X93456666Y-20318792D01*
X93412319Y-20290291D01*
X86977512Y-13855485D01*
X86977511Y-13855484D01*
X86786434Y-13716657D01*
X86575996Y-13609433D01*
X86351368Y-13536446D01*
X86118097Y-13499500D01*
X86118092Y-13499500D01*
X81618092Y-13499500D01*
X45381908Y-13499500D01*
X45381903Y-13499500D01*
X45148631Y-13536446D01*
X44924003Y-13609433D01*
X44713565Y-13716657D01*
X44522488Y-13855484D01*
X31355484Y-27022488D01*
X31216657Y-27213565D01*
X31109433Y-27424003D01*
X31036446Y-27648631D01*
X30999500Y-27881902D01*
X30999500Y-28118097D01*
X31036446Y-28351368D01*
X31109433Y-28575996D01*
X31198719Y-28751228D01*
X31216657Y-28786434D01*
X31355483Y-28977510D01*
X38964490Y-36586517D01*
X39155566Y-36725343D01*
X39254992Y-36776003D01*
X39366003Y-36832566D01*
X39366005Y-36832566D01*
X39366008Y-36832568D01*
X39486412Y-36871689D01*
X39590631Y-36905553D01*
X39823903Y-36942500D01*
X39823908Y-36942500D01*
X41463001Y-36942500D01*
X41530040Y-36962185D01*
X41575795Y-37014989D01*
X41587001Y-37066500D01*
X41587001Y-38326723D01*
X41597404Y-38458913D01*
X41597405Y-38458920D01*
X41652402Y-38677178D01*
X41652403Y-38677181D01*
X41745491Y-38882122D01*
X41745497Y-38882132D01*
X41873674Y-39067145D01*
X41873678Y-39067150D01*
X41873681Y-39067154D01*
X42032846Y-39226319D01*
X42032850Y-39226322D01*
X42032854Y-39226325D01*
X42101772Y-39274072D01*
X42145669Y-39328431D01*
X42153208Y-39397892D01*
X42121997Y-39460403D01*
X42061944Y-39496117D01*
X42031156Y-39500000D01*
X13124500Y-39500000D01*
X13057461Y-39480315D01*
X13011706Y-39427511D01*
X13000500Y-39376000D01*
X13000500Y-17950446D01*
X13020185Y-17883407D01*
X13072989Y-17837652D01*
X13142147Y-17827708D01*
X13205703Y-17856733D01*
X13227602Y-17881555D01*
X13305601Y-17998289D01*
X13305611Y-17998303D01*
X13514453Y-18252777D01*
X13747222Y-18485546D01*
X13747227Y-18485550D01*
X13747228Y-18485551D01*
X14001702Y-18694393D01*
X14275421Y-18877286D01*
X14565749Y-19032469D01*
X14869889Y-19158448D01*
X15184913Y-19254010D01*
X15184919Y-19254011D01*
X15184922Y-19254012D01*
X15184933Y-19254015D01*
X15365361Y-19289903D01*
X15507787Y-19318233D01*
X15835400Y-19350500D01*
X15835403Y-19350500D01*
X16164597Y-19350500D01*
X16164600Y-19350500D01*
X16492213Y-19318233D01*
X16669760Y-19282916D01*
X16815066Y-19254015D01*
X16815077Y-19254012D01*
X16815077Y-19254011D01*
X16815087Y-19254010D01*
X17130111Y-19158448D01*
X17434251Y-19032469D01*
X17724579Y-18877286D01*
X17998298Y-18694393D01*
X18252772Y-18485551D01*
X18485551Y-18252772D01*
X18694393Y-17998298D01*
X18877286Y-17724579D01*
X19032469Y-17434251D01*
X19158448Y-17130111D01*
X19254010Y-16815087D01*
X19254012Y-16815077D01*
X19254015Y-16815066D01*
X19282916Y-16669760D01*
X19318233Y-16492213D01*
X19350500Y-16164600D01*
X19350500Y-15835400D01*
X19318233Y-15507787D01*
X19286844Y-15349984D01*
X19254015Y-15184933D01*
X19254012Y-15184922D01*
X19254011Y-15184919D01*
X19254010Y-15184913D01*
X19158448Y-14869889D01*
X19032469Y-14565749D01*
X18877286Y-14275421D01*
X18694393Y-14001702D01*
X18485551Y-13747228D01*
X18485550Y-13747227D01*
X18485546Y-13747222D01*
X18252777Y-13514453D01*
X17998303Y-13305611D01*
X17998302Y-13305610D01*
X17998298Y-13305607D01*
X17881554Y-13227601D01*
X17836750Y-13173990D01*
X17828043Y-13104665D01*
X17858197Y-13041638D01*
X17917640Y-13004918D01*
X17950446Y-13000500D01*
X192049554Y-13000500D01*
X192116593Y-13020185D01*
G37*
%TD.AperFunction*%
%TA.AperFunction,Conductor*%
G36*
X74031048Y-16520185D02*
G01*
X74076803Y-16572989D01*
X74088009Y-16624500D01*
X74088009Y-29706606D01*
X74124955Y-29939877D01*
X74197942Y-30164505D01*
X74247029Y-30260843D01*
X74305166Y-30374943D01*
X74421502Y-30535065D01*
X74443993Y-30566020D01*
X79963181Y-36085208D01*
X79996666Y-36146531D01*
X79999500Y-36172889D01*
X79999500Y-38414208D01*
X79999501Y-38414223D01*
X80009904Y-38546413D01*
X80009905Y-38546420D01*
X80064902Y-38764678D01*
X80064903Y-38764681D01*
X80157991Y-38969622D01*
X80157997Y-38969632D01*
X80286174Y-39154645D01*
X80286178Y-39154650D01*
X80286181Y-39154654D01*
X80286184Y-39154657D01*
X80419846Y-39288319D01*
X80453331Y-39349642D01*
X80448347Y-39419334D01*
X80406475Y-39475267D01*
X80341011Y-39499684D01*
X80332165Y-39500000D01*
X45143844Y-39500000D01*
X45076805Y-39480315D01*
X45031050Y-39427511D01*
X45021106Y-39358353D01*
X45050131Y-39294797D01*
X45073228Y-39274072D01*
X45142145Y-39226325D01*
X45142154Y-39226319D01*
X45301319Y-39067154D01*
X45429507Y-38882126D01*
X45522596Y-38677183D01*
X45577596Y-38458912D01*
X45588000Y-38326717D01*
X45587999Y-35498284D01*
X45577596Y-35366088D01*
X45538814Y-35212181D01*
X45522597Y-35147821D01*
X45522596Y-35147818D01*
X45520020Y-35142147D01*
X45429507Y-34942874D01*
X45361937Y-34845342D01*
X45301325Y-34757854D01*
X45301322Y-34757850D01*
X45301319Y-34757846D01*
X45142154Y-34598681D01*
X45131981Y-34591633D01*
X45106833Y-34574210D01*
X45077134Y-34545170D01*
X45018517Y-34464490D01*
X44851510Y-34297483D01*
X44660433Y-34158657D01*
X44449996Y-34051433D01*
X44225368Y-33978446D01*
X43992097Y-33941500D01*
X43992092Y-33941500D01*
X40614889Y-33941500D01*
X40547850Y-33921815D01*
X40527208Y-33905181D01*
X36882863Y-30260836D01*
X41887000Y-30260836D01*
X41887000Y-30564163D01*
X41920957Y-30865548D01*
X41920960Y-30865562D01*
X41988453Y-31161271D01*
X41988457Y-31161283D01*
X42088633Y-31447568D01*
X42220233Y-31720838D01*
X42231587Y-31738908D01*
X42381608Y-31977664D01*
X42570721Y-32214804D01*
X42785196Y-32429279D01*
X43022336Y-32618392D01*
X43279159Y-32779765D01*
X43552435Y-32911368D01*
X43767451Y-32986605D01*
X43838716Y-33011542D01*
X43838728Y-33011546D01*
X44134437Y-33079040D01*
X44134446Y-33079041D01*
X44134451Y-33079042D01*
X44335374Y-33101680D01*
X44435837Y-33112999D01*
X44435840Y-33113000D01*
X44435843Y-33113000D01*
X44739160Y-33113000D01*
X44739161Y-33112999D01*
X44893194Y-33095644D01*
X45040548Y-33079042D01*
X45040551Y-33079041D01*
X45040563Y-33079040D01*
X45336272Y-33011546D01*
X45622565Y-32911368D01*
X45895841Y-32779765D01*
X46152664Y-32618392D01*
X46389804Y-32429279D01*
X46604279Y-32214804D01*
X46793392Y-31977664D01*
X46954765Y-31720841D01*
X47086368Y-31447565D01*
X47186546Y-31161272D01*
X47254040Y-30865563D01*
X47260488Y-30808341D01*
X47270644Y-30718194D01*
X47288000Y-30564157D01*
X47288000Y-30260843D01*
X47276680Y-30160374D01*
X47254042Y-29959451D01*
X47254041Y-29959446D01*
X47254040Y-29959437D01*
X47186546Y-29663728D01*
X47179641Y-29643996D01*
X47161605Y-29592451D01*
X47086368Y-29377435D01*
X46954765Y-29104159D01*
X46793392Y-28847336D01*
X46604279Y-28610196D01*
X46389804Y-28395721D01*
X46152664Y-28206608D01*
X45895841Y-28045235D01*
X45895838Y-28045233D01*
X45622568Y-27913633D01*
X45336283Y-27813457D01*
X45336271Y-27813453D01*
X45108056Y-27761364D01*
X45040563Y-27745960D01*
X45040560Y-27745959D01*
X45040548Y-27745957D01*
X44739163Y-27712000D01*
X44739157Y-27712000D01*
X44435843Y-27712000D01*
X44435836Y-27712000D01*
X44134451Y-27745957D01*
X44134437Y-27745960D01*
X43838728Y-27813453D01*
X43838716Y-27813457D01*
X43552431Y-27913633D01*
X43279161Y-28045233D01*
X43022337Y-28206607D01*
X42785196Y-28395720D01*
X42570720Y-28610196D01*
X42381607Y-28847337D01*
X42220233Y-29104161D01*
X42088633Y-29377431D01*
X41988457Y-29663716D01*
X41988453Y-29663728D01*
X41920960Y-29959437D01*
X41920957Y-29959451D01*
X41887000Y-30260836D01*
X36882863Y-30260836D01*
X34709708Y-28087681D01*
X34676223Y-28026358D01*
X34681207Y-27956666D01*
X34709708Y-27912319D01*
X46085208Y-16536819D01*
X46146531Y-16503334D01*
X46172889Y-16500500D01*
X73964009Y-16500500D01*
X74031048Y-16520185D01*
G37*
%TD.AperFunction*%
%TA.AperFunction,Conductor*%
G36*
X85394150Y-16520185D02*
G01*
X85414791Y-16536818D01*
X92522490Y-23644518D01*
X92617527Y-23713566D01*
X92713566Y-23783343D01*
X92812992Y-23834003D01*
X92924003Y-23890566D01*
X92924005Y-23890566D01*
X92924008Y-23890568D01*
X93044412Y-23929689D01*
X93148631Y-23963553D01*
X93381903Y-24000500D01*
X93381908Y-24000500D01*
X93618097Y-24000500D01*
X93747690Y-23979973D01*
X93851369Y-23963553D01*
X94075992Y-23890568D01*
X94286434Y-23783343D01*
X94477510Y-23644518D01*
X94644518Y-23477510D01*
X94644519Y-23477508D01*
X94651579Y-23470448D01*
X94651584Y-23470441D01*
X100085208Y-18036819D01*
X100146531Y-18003334D01*
X100172889Y-18000500D01*
X101646044Y-18000500D01*
X101713083Y-18020185D01*
X101751583Y-18059404D01*
X101757288Y-18068654D01*
X101881344Y-18192710D01*
X101881348Y-18192713D01*
X102030662Y-18284812D01*
X102030664Y-18284813D01*
X102030666Y-18284814D01*
X102197203Y-18339999D01*
X102299992Y-18350500D01*
X104177111Y-18350500D01*
X104244150Y-18370185D01*
X104264792Y-18386819D01*
X107799523Y-21921551D01*
X107833008Y-21982874D01*
X107828024Y-22052566D01*
X107812160Y-22082118D01*
X107716657Y-22213565D01*
X107646444Y-22351368D01*
X107609433Y-22424003D01*
X107536446Y-22648631D01*
X107499500Y-22881902D01*
X107499500Y-25618097D01*
X107536446Y-25851368D01*
X107609433Y-26075996D01*
X107716657Y-26286434D01*
X107855484Y-26477511D01*
X116963181Y-35585208D01*
X116996666Y-35646531D01*
X116999500Y-35672889D01*
X116999500Y-37414208D01*
X116999501Y-37414223D01*
X117009904Y-37546413D01*
X117009905Y-37546420D01*
X117064902Y-37764678D01*
X117064903Y-37764681D01*
X117157991Y-37969622D01*
X117157997Y-37969632D01*
X117286174Y-38154645D01*
X117286178Y-38154650D01*
X117286181Y-38154654D01*
X117445346Y-38313819D01*
X117445350Y-38313822D01*
X117445354Y-38313825D01*
X117483192Y-38340039D01*
X117630374Y-38442007D01*
X117835317Y-38535096D01*
X117835321Y-38535097D01*
X118053579Y-38590094D01*
X118053581Y-38590094D01*
X118053588Y-38590096D01*
X118185783Y-38600500D01*
X119814216Y-38600499D01*
X119946412Y-38590096D01*
X120164683Y-38535096D01*
X120369626Y-38442007D01*
X120554654Y-38313819D01*
X120713819Y-38154654D01*
X120842007Y-37969626D01*
X120935096Y-37764683D01*
X120990096Y-37546412D01*
X121000500Y-37414217D01*
X121000499Y-34585784D01*
X120990096Y-34453588D01*
X120979088Y-34409904D01*
X120935097Y-34235321D01*
X120935096Y-34235318D01*
X120900275Y-34158657D01*
X120842007Y-34030374D01*
X120713819Y-33845346D01*
X120554654Y-33686181D01*
X120554650Y-33686178D01*
X120554645Y-33686174D01*
X120369632Y-33557997D01*
X120369630Y-33557995D01*
X120369626Y-33557993D01*
X120164683Y-33464904D01*
X120164681Y-33464903D01*
X120164678Y-33464902D01*
X119946420Y-33409905D01*
X119946413Y-33409904D01*
X119814222Y-33399500D01*
X119814217Y-33399500D01*
X119072889Y-33399500D01*
X119005850Y-33379815D01*
X118985208Y-33363181D01*
X114970363Y-29348336D01*
X117299500Y-29348336D01*
X117299500Y-29651663D01*
X117333457Y-29953048D01*
X117333460Y-29953062D01*
X117400953Y-30248771D01*
X117400957Y-30248783D01*
X117501133Y-30535068D01*
X117632733Y-30808338D01*
X117632735Y-30808341D01*
X117794108Y-31065164D01*
X117983221Y-31302304D01*
X118197696Y-31516779D01*
X118434836Y-31705892D01*
X118691659Y-31867265D01*
X118964935Y-31998868D01*
X119154393Y-32065162D01*
X119251216Y-32099042D01*
X119251228Y-32099046D01*
X119546937Y-32166540D01*
X119546946Y-32166541D01*
X119546951Y-32166542D01*
X119747874Y-32189180D01*
X119848337Y-32200499D01*
X119848340Y-32200500D01*
X119848343Y-32200500D01*
X120151660Y-32200500D01*
X120151661Y-32200499D01*
X120305694Y-32183144D01*
X120453048Y-32166542D01*
X120453051Y-32166541D01*
X120453063Y-32166540D01*
X120748772Y-32099046D01*
X121035065Y-31998868D01*
X121308341Y-31867265D01*
X121565164Y-31705892D01*
X121802304Y-31516779D01*
X122016779Y-31302304D01*
X122205892Y-31065164D01*
X122367265Y-30808341D01*
X122498868Y-30535065D01*
X122599046Y-30248772D01*
X122666540Y-29953063D01*
X122700500Y-29651657D01*
X122700500Y-29348343D01*
X122682846Y-29191659D01*
X122666542Y-29046951D01*
X122666541Y-29046946D01*
X122666540Y-29046937D01*
X122599046Y-28751228D01*
X122498868Y-28464935D01*
X122367265Y-28191659D01*
X122205892Y-27934836D01*
X122016779Y-27697696D01*
X121802304Y-27483221D01*
X121565164Y-27294108D01*
X121308341Y-27132735D01*
X121308338Y-27132733D01*
X121035068Y-27001133D01*
X120748783Y-26900957D01*
X120748771Y-26900953D01*
X120520556Y-26848864D01*
X120453063Y-26833460D01*
X120453060Y-26833459D01*
X120453048Y-26833457D01*
X120151663Y-26799500D01*
X120151657Y-26799500D01*
X119848343Y-26799500D01*
X119848336Y-26799500D01*
X119546951Y-26833457D01*
X119546937Y-26833460D01*
X119251228Y-26900953D01*
X119251216Y-26900957D01*
X118964931Y-27001133D01*
X118691661Y-27132733D01*
X118434837Y-27294107D01*
X118197696Y-27483220D01*
X117983220Y-27697696D01*
X117794107Y-27934837D01*
X117632733Y-28191661D01*
X117501133Y-28464931D01*
X117400957Y-28751216D01*
X117400953Y-28751228D01*
X117333460Y-29046937D01*
X117333457Y-29046951D01*
X117299500Y-29348336D01*
X114970363Y-29348336D01*
X110536819Y-24914792D01*
X110503334Y-24853469D01*
X110500500Y-24827111D01*
X110500500Y-23672890D01*
X110509144Y-23643452D01*
X110515668Y-23613462D01*
X110519422Y-23608446D01*
X110520185Y-23605851D01*
X110536820Y-23585208D01*
X110585211Y-23536818D01*
X110646534Y-23503334D01*
X110672891Y-23500500D01*
X124118097Y-23500500D01*
X124351368Y-23463553D01*
X124575992Y-23390568D01*
X124786434Y-23283343D01*
X124977510Y-23144517D01*
X130585208Y-17536819D01*
X130646531Y-17503334D01*
X130672889Y-17500500D01*
X151578111Y-17500500D01*
X151645150Y-17520185D01*
X151690905Y-17572989D01*
X151700849Y-17642147D01*
X151671824Y-17705703D01*
X151665792Y-17712181D01*
X145855485Y-23522487D01*
X145855484Y-23522488D01*
X145716657Y-23713565D01*
X145609433Y-23924003D01*
X145536446Y-24148631D01*
X145499500Y-24381902D01*
X145499500Y-29186097D01*
X145536446Y-29419368D01*
X145609433Y-29643996D01*
X145641335Y-29706606D01*
X145716657Y-29854434D01*
X145778735Y-29939877D01*
X145855484Y-30045511D01*
X152463181Y-36653208D01*
X152496666Y-36714531D01*
X152499500Y-36740889D01*
X152499500Y-37414208D01*
X152499501Y-37414223D01*
X152509904Y-37546413D01*
X152509905Y-37546420D01*
X152564902Y-37764678D01*
X152564903Y-37764681D01*
X152657991Y-37969622D01*
X152657997Y-37969632D01*
X152786174Y-38154645D01*
X152786178Y-38154650D01*
X152786181Y-38154654D01*
X152945346Y-38313819D01*
X152945350Y-38313822D01*
X152945354Y-38313825D01*
X152983192Y-38340039D01*
X153130374Y-38442007D01*
X153335317Y-38535096D01*
X153335321Y-38535097D01*
X153553579Y-38590094D01*
X153553581Y-38590094D01*
X153553588Y-38590096D01*
X153685783Y-38600500D01*
X155314216Y-38600499D01*
X155446412Y-38590096D01*
X155664683Y-38535096D01*
X155869626Y-38442007D01*
X156054654Y-38313819D01*
X156213819Y-38154654D01*
X156342007Y-37969626D01*
X156435096Y-37764683D01*
X156490096Y-37546412D01*
X156500500Y-37414217D01*
X156500499Y-34585784D01*
X156490096Y-34453588D01*
X156479088Y-34409904D01*
X156435097Y-34235321D01*
X156435096Y-34235318D01*
X156400275Y-34158657D01*
X156342007Y-34030374D01*
X156213819Y-33845346D01*
X156054654Y-33686181D01*
X156054650Y-33686178D01*
X156054645Y-33686174D01*
X155869632Y-33557997D01*
X155869630Y-33557995D01*
X155869626Y-33557993D01*
X155664683Y-33464904D01*
X155664681Y-33464903D01*
X155664678Y-33464902D01*
X155446420Y-33409905D01*
X155446413Y-33409904D01*
X155402347Y-33406436D01*
X155314217Y-33399500D01*
X155314215Y-33399500D01*
X153685791Y-33399500D01*
X153685776Y-33399501D01*
X153553587Y-33409904D01*
X153553582Y-33409905D01*
X153550189Y-33410760D01*
X153548722Y-33410702D01*
X153548436Y-33410750D01*
X153548426Y-33410691D01*
X153480372Y-33408045D01*
X153432223Y-33378196D01*
X149402363Y-29348336D01*
X152799500Y-29348336D01*
X152799500Y-29651663D01*
X152833457Y-29953048D01*
X152833460Y-29953062D01*
X152900953Y-30248771D01*
X152900957Y-30248783D01*
X153001133Y-30535068D01*
X153132733Y-30808338D01*
X153132735Y-30808341D01*
X153294108Y-31065164D01*
X153483221Y-31302304D01*
X153697696Y-31516779D01*
X153934836Y-31705892D01*
X154191659Y-31867265D01*
X154464935Y-31998868D01*
X154654393Y-32065162D01*
X154751216Y-32099042D01*
X154751228Y-32099046D01*
X155046937Y-32166540D01*
X155046946Y-32166541D01*
X155046951Y-32166542D01*
X155247874Y-32189180D01*
X155348337Y-32200499D01*
X155348340Y-32200500D01*
X155348343Y-32200500D01*
X155651660Y-32200500D01*
X155651661Y-32200499D01*
X155805694Y-32183144D01*
X155953048Y-32166542D01*
X155953051Y-32166541D01*
X155953063Y-32166540D01*
X156248772Y-32099046D01*
X156535065Y-31998868D01*
X156808341Y-31867265D01*
X157065164Y-31705892D01*
X157302304Y-31516779D01*
X157516779Y-31302304D01*
X157705892Y-31065164D01*
X157867265Y-30808341D01*
X157998868Y-30535065D01*
X158099046Y-30248772D01*
X158166540Y-29953063D01*
X158200500Y-29651657D01*
X158200500Y-29348343D01*
X158182846Y-29191659D01*
X158166542Y-29046951D01*
X158166541Y-29046946D01*
X158166540Y-29046937D01*
X158099046Y-28751228D01*
X157998868Y-28464935D01*
X157867265Y-28191659D01*
X157705892Y-27934836D01*
X157516779Y-27697696D01*
X157302304Y-27483221D01*
X157065164Y-27294108D01*
X156808341Y-27132735D01*
X156808338Y-27132733D01*
X156535068Y-27001133D01*
X156248783Y-26900957D01*
X156248771Y-26900953D01*
X156020556Y-26848864D01*
X155953063Y-26833460D01*
X155953060Y-26833459D01*
X155953048Y-26833457D01*
X155651663Y-26799500D01*
X155651657Y-26799500D01*
X155348343Y-26799500D01*
X155348336Y-26799500D01*
X155046951Y-26833457D01*
X155046937Y-26833460D01*
X154751228Y-26900953D01*
X154751216Y-26900957D01*
X154464931Y-27001133D01*
X154191661Y-27132733D01*
X153934837Y-27294107D01*
X153697696Y-27483220D01*
X153483220Y-27697696D01*
X153294107Y-27934837D01*
X153132733Y-28191661D01*
X153001133Y-28464931D01*
X152900957Y-28751216D01*
X152900953Y-28751228D01*
X152833460Y-29046937D01*
X152833457Y-29046951D01*
X152799500Y-29348336D01*
X149402363Y-29348336D01*
X148536819Y-28482792D01*
X148503334Y-28421469D01*
X148500500Y-28395111D01*
X148500500Y-25172889D01*
X148520185Y-25105850D01*
X148536819Y-25085208D01*
X151700476Y-21921551D01*
X155144517Y-18477510D01*
X155283343Y-18286434D01*
X155390568Y-18075992D01*
X155463553Y-17851368D01*
X155467300Y-17827708D01*
X155500500Y-17618095D01*
X155500761Y-17614780D01*
X155501213Y-17613592D01*
X155501263Y-17613280D01*
X155501328Y-17613290D01*
X155525639Y-17549490D01*
X155581867Y-17508015D01*
X155624379Y-17500500D01*
X165327111Y-17500500D01*
X165394150Y-17520185D01*
X165414792Y-17536819D01*
X179665792Y-31787819D01*
X179699277Y-31849142D01*
X179694293Y-31918834D01*
X179652421Y-31974767D01*
X179586957Y-31999184D01*
X179578111Y-31999500D01*
X175881903Y-31999500D01*
X175648631Y-32036446D01*
X175424003Y-32109433D01*
X175213566Y-32216657D01*
X175104550Y-32295862D01*
X175022490Y-32355483D01*
X175022488Y-32355485D01*
X175022487Y-32355485D01*
X174855485Y-32522487D01*
X174855485Y-32522488D01*
X174855483Y-32522490D01*
X174795862Y-32604550D01*
X174716657Y-32713566D01*
X174609433Y-32924003D01*
X174536446Y-33148631D01*
X174499500Y-33381902D01*
X174499500Y-37233408D01*
X174536447Y-37466680D01*
X174536447Y-37466683D01*
X174609429Y-37691297D01*
X174627152Y-37726080D01*
X174640667Y-37782375D01*
X174640667Y-38192368D01*
X174640667Y-38192370D01*
X174640668Y-38192381D01*
X174643445Y-38239015D01*
X174643446Y-38239019D01*
X174687573Y-38441873D01*
X174687575Y-38441880D01*
X174755501Y-38600500D01*
X174769299Y-38632721D01*
X174769302Y-38632725D01*
X174885657Y-38804642D01*
X174885665Y-38804651D01*
X175032460Y-38951446D01*
X175032469Y-38951454D01*
X175136292Y-39021722D01*
X175204391Y-39067813D01*
X175204396Y-39067815D01*
X175395231Y-39149536D01*
X175395239Y-39149538D01*
X175492556Y-39170708D01*
X175519570Y-39185458D01*
X175547549Y-39198289D01*
X175549958Y-39202050D01*
X175553880Y-39204192D01*
X175568631Y-39231208D01*
X175585231Y-39257126D01*
X175585223Y-39261594D01*
X175587365Y-39265515D01*
X175585169Y-39296215D01*
X175585121Y-39326996D01*
X175582699Y-39330750D01*
X175582381Y-39335207D01*
X175563935Y-39359848D01*
X175547254Y-39385715D01*
X175542522Y-39388452D01*
X175540510Y-39391141D01*
X175517533Y-39404749D01*
X175512430Y-39407069D01*
X175476083Y-39419788D01*
X175333804Y-39488306D01*
X175332553Y-39488875D01*
X175325678Y-39489852D01*
X175281219Y-39500000D01*
X83667835Y-39500000D01*
X83600796Y-39480315D01*
X83555041Y-39427511D01*
X83545097Y-39358353D01*
X83574122Y-39294797D01*
X83580154Y-39288319D01*
X83642158Y-39226315D01*
X83713819Y-39154654D01*
X83842007Y-38969626D01*
X83935096Y-38764683D01*
X83990096Y-38546412D01*
X84000500Y-38414217D01*
X84000499Y-35585784D01*
X83990096Y-35453588D01*
X83968045Y-35366079D01*
X83935097Y-35235321D01*
X83935096Y-35235318D01*
X83921644Y-35205703D01*
X83842007Y-35030374D01*
X83713819Y-34845346D01*
X83554654Y-34686181D01*
X83554650Y-34686178D01*
X83554645Y-34686174D01*
X83369632Y-34557997D01*
X83369630Y-34557995D01*
X83369626Y-34557993D01*
X83164683Y-34464904D01*
X83164681Y-34464903D01*
X83164678Y-34464902D01*
X82946420Y-34409905D01*
X82946413Y-34409904D01*
X82814222Y-34399500D01*
X82814217Y-34399500D01*
X82572889Y-34399500D01*
X82505850Y-34379815D01*
X82485208Y-34363181D01*
X78470363Y-30348336D01*
X80299500Y-30348336D01*
X80299500Y-30651663D01*
X80333457Y-30953048D01*
X80333460Y-30953062D01*
X80400953Y-31248771D01*
X80400957Y-31248783D01*
X80501133Y-31535068D01*
X80632733Y-31808338D01*
X80632735Y-31808341D01*
X80794108Y-32065164D01*
X80983221Y-32302304D01*
X81197696Y-32516779D01*
X81434836Y-32705892D01*
X81691659Y-32867265D01*
X81964935Y-32998868D01*
X82179951Y-33074105D01*
X82251216Y-33099042D01*
X82251228Y-33099046D01*
X82546937Y-33166540D01*
X82546946Y-33166541D01*
X82546951Y-33166542D01*
X82747874Y-33189180D01*
X82848337Y-33200499D01*
X82848340Y-33200500D01*
X82848343Y-33200500D01*
X83151660Y-33200500D01*
X83151661Y-33200499D01*
X83305694Y-33183144D01*
X83453048Y-33166542D01*
X83453051Y-33166541D01*
X83453063Y-33166540D01*
X83748772Y-33099046D01*
X84035065Y-32998868D01*
X84308341Y-32867265D01*
X84565164Y-32705892D01*
X84802304Y-32516779D01*
X85016779Y-32302304D01*
X85205892Y-32065164D01*
X85367265Y-31808341D01*
X85498868Y-31535065D01*
X85599046Y-31248772D01*
X85666540Y-30953063D01*
X85676401Y-30865548D01*
X85700499Y-30651663D01*
X85700500Y-30651659D01*
X85700500Y-30348340D01*
X85700499Y-30348336D01*
X85666542Y-30046951D01*
X85666541Y-30046946D01*
X85666540Y-30046937D01*
X85599046Y-29751228D01*
X85498868Y-29464935D01*
X85367265Y-29191659D01*
X85205892Y-28934836D01*
X85016779Y-28697696D01*
X84802304Y-28483221D01*
X84565164Y-28294108D01*
X84308341Y-28132735D01*
X84308338Y-28132733D01*
X84035068Y-28001133D01*
X83748783Y-27900957D01*
X83748771Y-27900953D01*
X83520556Y-27848864D01*
X83453063Y-27833460D01*
X83453060Y-27833459D01*
X83453048Y-27833457D01*
X83151663Y-27799500D01*
X83151657Y-27799500D01*
X82848343Y-27799500D01*
X82848336Y-27799500D01*
X82546951Y-27833457D01*
X82546937Y-27833460D01*
X82251228Y-27900953D01*
X82251216Y-27900957D01*
X81964931Y-28001133D01*
X81691661Y-28132733D01*
X81434837Y-28294107D01*
X81197696Y-28483220D01*
X80983220Y-28697696D01*
X80794107Y-28934837D01*
X80632733Y-29191661D01*
X80501133Y-29464931D01*
X80400957Y-29751216D01*
X80400953Y-29751228D01*
X80333460Y-30046937D01*
X80333457Y-30046951D01*
X80299500Y-30348336D01*
X78470363Y-30348336D01*
X77125328Y-29003301D01*
X77091843Y-28941978D01*
X77089009Y-28915620D01*
X77089009Y-16624500D01*
X77108694Y-16557461D01*
X77161498Y-16511706D01*
X77213009Y-16500500D01*
X81381908Y-16500500D01*
X85327111Y-16500500D01*
X85394150Y-16520185D01*
G37*
%TD.AperFunction*%
%TD*%
%TA.AperFunction,NonConductor*%
G36*
X14116593Y-13020185D02*
G01*
X14162348Y-13072989D01*
X14172292Y-13142147D01*
X14143267Y-13205703D01*
X14118445Y-13227602D01*
X14001710Y-13305601D01*
X14001696Y-13305611D01*
X13747222Y-13514453D01*
X13514453Y-13747222D01*
X13305611Y-14001696D01*
X13305601Y-14001710D01*
X13227602Y-14118444D01*
X13173990Y-14163249D01*
X13104665Y-14171956D01*
X13041637Y-14141801D01*
X13004918Y-14082358D01*
X13000500Y-14049553D01*
X13000500Y-13124500D01*
X13020185Y-13057461D01*
X13072989Y-13011706D01*
X13124500Y-13000500D01*
X14049554Y-13000500D01*
X14116593Y-13020185D01*
G37*
%TD.AperFunction*%
%TA.AperFunction,NonConductor*%
G36*
X196942539Y-13020185D02*
G01*
X196988294Y-13072989D01*
X196999500Y-13124500D01*
X196999500Y-14049553D01*
X196979815Y-14116592D01*
X196927011Y-14162347D01*
X196857853Y-14172291D01*
X196794297Y-14143266D01*
X196772398Y-14118444D01*
X196694398Y-14001710D01*
X196694393Y-14001702D01*
X196485551Y-13747228D01*
X196485550Y-13747227D01*
X196485546Y-13747222D01*
X196252777Y-13514453D01*
X195998303Y-13305611D01*
X195998302Y-13305610D01*
X195998298Y-13305607D01*
X195881554Y-13227601D01*
X195836750Y-13173990D01*
X195828043Y-13104665D01*
X195858197Y-13041638D01*
X195917640Y-13004918D01*
X195950446Y-13000500D01*
X196875500Y-13000500D01*
X196942539Y-13020185D01*
G37*
%TD.AperFunction*%
%TA.AperFunction,NonConductor*%
G36*
X179145150Y-35020185D02*
G01*
X179190905Y-35072989D01*
X179200849Y-35142147D01*
X179171824Y-35205703D01*
X179165792Y-35212181D01*
X178746013Y-35631960D01*
X178684690Y-35665445D01*
X178658332Y-35668279D01*
X178275875Y-35668279D01*
X178244699Y-35670136D01*
X178227688Y-35671149D01*
X178018133Y-35716736D01*
X178018117Y-35716741D01*
X177820973Y-35801162D01*
X177694003Y-35887098D01*
X177627450Y-35908372D01*
X177559962Y-35890288D01*
X177512963Y-35838588D01*
X177500500Y-35784407D01*
X177500500Y-35124500D01*
X177520185Y-35057461D01*
X177572989Y-35011706D01*
X177624500Y-35000500D01*
X179078111Y-35000500D01*
X179145150Y-35020185D01*
G37*
%TD.AperFunction*%
%TA.AperFunction,NonConductor*%
G36*
X177638697Y-39119762D02*
G01*
X177642969Y-39123836D01*
X177643351Y-39124218D01*
X177820967Y-39244432D01*
X177820971Y-39244433D01*
X177820973Y-39244435D01*
X177862019Y-39262012D01*
X177870140Y-39268717D01*
X177880246Y-39271685D01*
X177896617Y-39290578D01*
X177915897Y-39306497D01*
X177919104Y-39316529D01*
X177926001Y-39324489D01*
X177929559Y-39349234D01*
X177937172Y-39373049D01*
X177934446Y-39383222D01*
X177935945Y-39393647D01*
X177925558Y-39416390D01*
X177919088Y-39440538D01*
X177911295Y-39447621D01*
X177906920Y-39457203D01*
X177885885Y-39470721D01*
X177867388Y-39487536D01*
X177855445Y-39490283D01*
X177848142Y-39494977D01*
X177813207Y-39500000D01*
X177741077Y-39500000D01*
X177687275Y-39487720D01*
X177546216Y-39419789D01*
X177411429Y-39372625D01*
X177391279Y-39358173D01*
X177368975Y-39347339D01*
X177363383Y-39338165D01*
X177354653Y-39331904D01*
X177345515Y-39308851D01*
X177332609Y-39287678D01*
X177332864Y-39276937D01*
X177328906Y-39266951D01*
X177333681Y-39242616D01*
X177334272Y-39217829D01*
X177340292Y-39208933D01*
X177342362Y-39198389D01*
X177359537Y-39180498D01*
X177373434Y-39159966D01*
X177387454Y-39151419D01*
X177390750Y-39147987D01*
X177403563Y-39141599D01*
X177506478Y-39097528D01*
X177575850Y-39089234D01*
X177638697Y-39119762D01*
G37*
%TD.AperFunction*%
%TA.AperFunction,Conductor*%
%TO.N,/Reg3 GND*%
G36*
X128437539Y-40519685D02*
G01*
X128483294Y-40572489D01*
X128494500Y-40624000D01*
X128494500Y-134875500D01*
X128474815Y-134942539D01*
X128422011Y-134988294D01*
X128370500Y-134999500D01*
X93624000Y-134999500D01*
X93556961Y-134979815D01*
X93511206Y-134927011D01*
X93500000Y-134875500D01*
X93500000Y-130999984D01*
X110399500Y-130999984D01*
X110399500Y-134000015D01*
X110410000Y-134102795D01*
X110410001Y-134102796D01*
X110465186Y-134269335D01*
X110465187Y-134269337D01*
X110557286Y-134418651D01*
X110557289Y-134418655D01*
X110681344Y-134542710D01*
X110681348Y-134542713D01*
X110830662Y-134634812D01*
X110830664Y-134634813D01*
X110830666Y-134634814D01*
X110997203Y-134689999D01*
X111099992Y-134700500D01*
X111099997Y-134700500D01*
X112200003Y-134700500D01*
X112200008Y-134700500D01*
X112302797Y-134689999D01*
X112469334Y-134634814D01*
X112618655Y-134542711D01*
X112742711Y-134418655D01*
X112834814Y-134269334D01*
X112889999Y-134102797D01*
X112900500Y-134000008D01*
X112900500Y-130999992D01*
X112900499Y-130999984D01*
X117099500Y-130999984D01*
X117099500Y-134000015D01*
X117110000Y-134102795D01*
X117110001Y-134102796D01*
X117165186Y-134269335D01*
X117165187Y-134269337D01*
X117257286Y-134418651D01*
X117257289Y-134418655D01*
X117381344Y-134542710D01*
X117381348Y-134542713D01*
X117530662Y-134634812D01*
X117530664Y-134634813D01*
X117530666Y-134634814D01*
X117697203Y-134689999D01*
X117799992Y-134700500D01*
X117799997Y-134700500D01*
X118900003Y-134700500D01*
X118900008Y-134700500D01*
X119002797Y-134689999D01*
X119169334Y-134634814D01*
X119318655Y-134542711D01*
X119442711Y-134418655D01*
X119534814Y-134269334D01*
X119589999Y-134102797D01*
X119600500Y-134000008D01*
X119600500Y-130999992D01*
X119589999Y-130897203D01*
X119534814Y-130730666D01*
X119442711Y-130581345D01*
X119318655Y-130457289D01*
X119318651Y-130457286D01*
X119169337Y-130365187D01*
X119169335Y-130365186D01*
X119086065Y-130337593D01*
X119002797Y-130310001D01*
X119002795Y-130310000D01*
X118900015Y-130299500D01*
X118900008Y-130299500D01*
X117799992Y-130299500D01*
X117799984Y-130299500D01*
X117697204Y-130310000D01*
X117697203Y-130310001D01*
X117530664Y-130365186D01*
X117530662Y-130365187D01*
X117381348Y-130457286D01*
X117381344Y-130457289D01*
X117257289Y-130581344D01*
X117257286Y-130581348D01*
X117165187Y-130730662D01*
X117165186Y-130730664D01*
X117110001Y-130897203D01*
X117110000Y-130897204D01*
X117099500Y-130999984D01*
X112900499Y-130999984D01*
X112889999Y-130897203D01*
X112834814Y-130730666D01*
X112742711Y-130581345D01*
X112618655Y-130457289D01*
X112618651Y-130457286D01*
X112469337Y-130365187D01*
X112469335Y-130365186D01*
X112386065Y-130337593D01*
X112302797Y-130310001D01*
X112302795Y-130310000D01*
X112200015Y-130299500D01*
X112200008Y-130299500D01*
X111099992Y-130299500D01*
X111099984Y-130299500D01*
X110997204Y-130310000D01*
X110997203Y-130310001D01*
X110830664Y-130365186D01*
X110830662Y-130365187D01*
X110681348Y-130457286D01*
X110681344Y-130457289D01*
X110557289Y-130581344D01*
X110557286Y-130581348D01*
X110465187Y-130730662D01*
X110465186Y-130730664D01*
X110410001Y-130897203D01*
X110410000Y-130897204D01*
X110399500Y-130999984D01*
X93500000Y-130999984D01*
X93500000Y-125199983D01*
X114999500Y-125199983D01*
X114999500Y-128300001D01*
X114999501Y-128300018D01*
X115010000Y-128402796D01*
X115010001Y-128402799D01*
X115065185Y-128569331D01*
X115065186Y-128569334D01*
X115157288Y-128718656D01*
X115281344Y-128842712D01*
X115430666Y-128934814D01*
X115597203Y-128989999D01*
X115699991Y-129000500D01*
X116300008Y-129000499D01*
X116300016Y-129000498D01*
X116300019Y-129000498D01*
X116356302Y-128994748D01*
X116402797Y-128989999D01*
X116569334Y-128934814D01*
X116718656Y-128842712D01*
X116842712Y-128718656D01*
X116934814Y-128569334D01*
X116989999Y-128402797D01*
X117000500Y-128300009D01*
X117000499Y-125199992D01*
X116989999Y-125097203D01*
X116934814Y-124930666D01*
X116842712Y-124781344D01*
X116842710Y-124781342D01*
X116838920Y-124775197D01*
X116840762Y-124774060D01*
X116818593Y-124719102D01*
X116818000Y-124706990D01*
X116818000Y-78822187D01*
X116837685Y-78755148D01*
X116854314Y-78734511D01*
X118952007Y-76636817D01*
X119013330Y-76603333D01*
X119039688Y-76600499D01*
X119814208Y-76600499D01*
X119814216Y-76600499D01*
X119946412Y-76590096D01*
X120164683Y-76535096D01*
X120369626Y-76442007D01*
X120554654Y-76313819D01*
X120713819Y-76154654D01*
X120842007Y-75969626D01*
X120935096Y-75764683D01*
X120990096Y-75546412D01*
X121000500Y-75414217D01*
X121000499Y-72585784D01*
X120990096Y-72453588D01*
X120935096Y-72235317D01*
X120842007Y-72030374D01*
X120758959Y-71910501D01*
X120713825Y-71845354D01*
X120713822Y-71845350D01*
X120713819Y-71845346D01*
X120554654Y-71686181D01*
X120554650Y-71686178D01*
X120554645Y-71686174D01*
X120369632Y-71557997D01*
X120369630Y-71557995D01*
X120369626Y-71557993D01*
X120164683Y-71464904D01*
X120164681Y-71464903D01*
X120164678Y-71464902D01*
X119946420Y-71409905D01*
X119946413Y-71409904D01*
X119902347Y-71406436D01*
X119814217Y-71399500D01*
X119814215Y-71399500D01*
X118185791Y-71399500D01*
X118185776Y-71399501D01*
X118053586Y-71409904D01*
X118053579Y-71409905D01*
X117835321Y-71464902D01*
X117835318Y-71464903D01*
X117630377Y-71557991D01*
X117630367Y-71557997D01*
X117445354Y-71686174D01*
X117445342Y-71686184D01*
X117286184Y-71845342D01*
X117286174Y-71845354D01*
X117157997Y-72030367D01*
X117157991Y-72030377D01*
X117064903Y-72235318D01*
X117064902Y-72235321D01*
X117009905Y-72453579D01*
X117009904Y-72453586D01*
X116999500Y-72585777D01*
X116999500Y-75414208D01*
X116999501Y-75414223D01*
X117009904Y-75546413D01*
X117009905Y-75546420D01*
X117064902Y-75764678D01*
X117064903Y-75764681D01*
X117137360Y-75924202D01*
X117157993Y-75969626D01*
X117159427Y-75971696D01*
X117159792Y-75972796D01*
X117160744Y-75974474D01*
X117160411Y-75974662D01*
X117181423Y-76038012D01*
X117164075Y-76105694D01*
X117145179Y-76129992D01*
X115364620Y-77910551D01*
X115364617Y-77910555D01*
X115275100Y-78044525D01*
X115275093Y-78044538D01*
X115213436Y-78193393D01*
X115213433Y-78193405D01*
X115182000Y-78351429D01*
X115182000Y-124706990D01*
X115162315Y-124774029D01*
X115158533Y-124779325D01*
X115065187Y-124930663D01*
X115065186Y-124930666D01*
X115010001Y-125097203D01*
X115010001Y-125097204D01*
X115010000Y-125097204D01*
X114999500Y-125199983D01*
X93500000Y-125199983D01*
X93500000Y-83348336D01*
X95299500Y-83348336D01*
X95299500Y-83651663D01*
X95333457Y-83953048D01*
X95333460Y-83953062D01*
X95400953Y-84248771D01*
X95400957Y-84248783D01*
X95501133Y-84535068D01*
X95632733Y-84808338D01*
X95632735Y-84808341D01*
X95794108Y-85065164D01*
X95983221Y-85302304D01*
X96197696Y-85516779D01*
X96434836Y-85705892D01*
X96691659Y-85867265D01*
X96964935Y-85998868D01*
X97179951Y-86074105D01*
X97251216Y-86099042D01*
X97251228Y-86099046D01*
X97546937Y-86166540D01*
X97546946Y-86166541D01*
X97546951Y-86166542D01*
X97747874Y-86189180D01*
X97848337Y-86200499D01*
X97848340Y-86200500D01*
X97848343Y-86200500D01*
X98151660Y-86200500D01*
X98151661Y-86200499D01*
X98305694Y-86183144D01*
X98453048Y-86166542D01*
X98453051Y-86166541D01*
X98453063Y-86166540D01*
X98748772Y-86099046D01*
X99035065Y-85998868D01*
X99308341Y-85867265D01*
X99565164Y-85705892D01*
X99802304Y-85516779D01*
X100016779Y-85302304D01*
X100205892Y-85065164D01*
X100367265Y-84808341D01*
X100498868Y-84535065D01*
X100599046Y-84248772D01*
X100666540Y-83953063D01*
X100676097Y-83868247D01*
X100700499Y-83651663D01*
X100700500Y-83651659D01*
X100700500Y-83348340D01*
X100700499Y-83348336D01*
X100666542Y-83046951D01*
X100666541Y-83046946D01*
X100666540Y-83046937D01*
X100599046Y-82751228D01*
X100498868Y-82464935D01*
X100367265Y-82191659D01*
X100205892Y-81934836D01*
X100016779Y-81697696D01*
X99802304Y-81483221D01*
X99565164Y-81294108D01*
X99308341Y-81132735D01*
X99308338Y-81132733D01*
X99035068Y-81001133D01*
X98748783Y-80900957D01*
X98748771Y-80900953D01*
X98520556Y-80848864D01*
X98453063Y-80833460D01*
X98453060Y-80833459D01*
X98453048Y-80833457D01*
X98151663Y-80799500D01*
X98151657Y-80799500D01*
X97848343Y-80799500D01*
X97848336Y-80799500D01*
X97546951Y-80833457D01*
X97546937Y-80833460D01*
X97251228Y-80900953D01*
X97251216Y-80900957D01*
X96964931Y-81001133D01*
X96691661Y-81132733D01*
X96434837Y-81294107D01*
X96197696Y-81483220D01*
X95983220Y-81697696D01*
X95794107Y-81934837D01*
X95632733Y-82191661D01*
X95501133Y-82464931D01*
X95400957Y-82751216D01*
X95400953Y-82751228D01*
X95333460Y-83046937D01*
X95333457Y-83046951D01*
X95299500Y-83348336D01*
X93500000Y-83348336D01*
X93500000Y-40624000D01*
X93519685Y-40556961D01*
X93572489Y-40511206D01*
X93624000Y-40500000D01*
X128370500Y-40500000D01*
X128437539Y-40519685D01*
G37*
%TD.AperFunction*%
%TD*%
%TA.AperFunction,Conductor*%
%TO.N,/Reg1 GND*%
G36*
X61870549Y-40513728D02*
G01*
X61937581Y-40533439D01*
X61983315Y-40586261D01*
X61994500Y-40637728D01*
X61994500Y-81812175D01*
X61974815Y-81879214D01*
X61922011Y-81924969D01*
X61852853Y-81934913D01*
X61829547Y-81929217D01*
X61748778Y-81900956D01*
X61748770Y-81900953D01*
X61540516Y-81853420D01*
X61453063Y-81833460D01*
X61453060Y-81833459D01*
X61453048Y-81833457D01*
X61151663Y-81799500D01*
X61151657Y-81799500D01*
X60848343Y-81799500D01*
X60848336Y-81799500D01*
X60546951Y-81833457D01*
X60546937Y-81833460D01*
X60251228Y-81900953D01*
X60251216Y-81900957D01*
X59964931Y-82001133D01*
X59691661Y-82132733D01*
X59434837Y-82294107D01*
X59197696Y-82483220D01*
X58983220Y-82697696D01*
X58794107Y-82934837D01*
X58632733Y-83191661D01*
X58501133Y-83464931D01*
X58400957Y-83751216D01*
X58400953Y-83751228D01*
X58333460Y-84046937D01*
X58333457Y-84046951D01*
X58299500Y-84348336D01*
X58299500Y-84651663D01*
X58333457Y-84953048D01*
X58333460Y-84953062D01*
X58400953Y-85248771D01*
X58400957Y-85248783D01*
X58501133Y-85535068D01*
X58632733Y-85808338D01*
X58632735Y-85808341D01*
X58794108Y-86065164D01*
X58983221Y-86302304D01*
X59197696Y-86516779D01*
X59434836Y-86705892D01*
X59691659Y-86867265D01*
X59964935Y-86998868D01*
X60160277Y-87067221D01*
X60251216Y-87099042D01*
X60251228Y-87099046D01*
X60546937Y-87166540D01*
X60546946Y-87166541D01*
X60546951Y-87166542D01*
X60735839Y-87187824D01*
X60848337Y-87200499D01*
X60848340Y-87200500D01*
X60848343Y-87200500D01*
X61151660Y-87200500D01*
X61151661Y-87200499D01*
X61305694Y-87183144D01*
X61453048Y-87166542D01*
X61453051Y-87166541D01*
X61453063Y-87166540D01*
X61748772Y-87099046D01*
X61762894Y-87094104D01*
X61829545Y-87070783D01*
X61899324Y-87067221D01*
X61959951Y-87101949D01*
X61992179Y-87163943D01*
X61994500Y-87187824D01*
X61994500Y-134875500D01*
X61974815Y-134942539D01*
X61922011Y-134988294D01*
X61870500Y-134999500D01*
X44553339Y-134999500D01*
X44486300Y-134979815D01*
X44440545Y-134927011D01*
X44430601Y-134857853D01*
X44447800Y-134810404D01*
X44534814Y-134669334D01*
X44589999Y-134502797D01*
X44600500Y-134400008D01*
X44600500Y-131399992D01*
X44589999Y-131297203D01*
X44534814Y-131130666D01*
X44442711Y-130981345D01*
X44318655Y-130857289D01*
X44318651Y-130857286D01*
X44169337Y-130765187D01*
X44169335Y-130765186D01*
X44086065Y-130737593D01*
X44002797Y-130710001D01*
X44002795Y-130710000D01*
X43900015Y-130699500D01*
X43900008Y-130699500D01*
X42799992Y-130699500D01*
X42799984Y-130699500D01*
X42697204Y-130710000D01*
X42697203Y-130710001D01*
X42530664Y-130765186D01*
X42530662Y-130765187D01*
X42381348Y-130857286D01*
X42381344Y-130857289D01*
X42257289Y-130981344D01*
X42257286Y-130981348D01*
X42165187Y-131130662D01*
X42165186Y-131130664D01*
X42110001Y-131297203D01*
X42110000Y-131297204D01*
X42099500Y-131399984D01*
X42099500Y-134400015D01*
X42110000Y-134502795D01*
X42110001Y-134502797D01*
X42165186Y-134669334D01*
X42252199Y-134810403D01*
X42270640Y-134877795D01*
X42249718Y-134944458D01*
X42196076Y-134989228D01*
X42146661Y-134999500D01*
X35853339Y-134999500D01*
X35786300Y-134979815D01*
X35740545Y-134927011D01*
X35730601Y-134857853D01*
X35747800Y-134810404D01*
X35834814Y-134669334D01*
X35889999Y-134502797D01*
X35900500Y-134400008D01*
X35900500Y-131399992D01*
X35889999Y-131297203D01*
X35834814Y-131130666D01*
X35742711Y-130981345D01*
X35618655Y-130857289D01*
X35618651Y-130857286D01*
X35469337Y-130765187D01*
X35469335Y-130765186D01*
X35386065Y-130737593D01*
X35302797Y-130710001D01*
X35302795Y-130710000D01*
X35200015Y-130699500D01*
X35200008Y-130699500D01*
X34099992Y-130699500D01*
X34099984Y-130699500D01*
X33997204Y-130710000D01*
X33997203Y-130710001D01*
X33830664Y-130765186D01*
X33830662Y-130765187D01*
X33681348Y-130857286D01*
X33681344Y-130857289D01*
X33557289Y-130981344D01*
X33557286Y-130981348D01*
X33465187Y-131130662D01*
X33465186Y-131130664D01*
X33410001Y-131297203D01*
X33410000Y-131297204D01*
X33399500Y-131399984D01*
X33399500Y-134400015D01*
X33410000Y-134502795D01*
X33410001Y-134502797D01*
X33465186Y-134669334D01*
X33552199Y-134810403D01*
X33570640Y-134877795D01*
X33549718Y-134944458D01*
X33496076Y-134989228D01*
X33446661Y-134999500D01*
X17950446Y-134999500D01*
X17883407Y-134979815D01*
X17837652Y-134927011D01*
X17827708Y-134857853D01*
X17856733Y-134794297D01*
X17881555Y-134772398D01*
X17998298Y-134694393D01*
X18252772Y-134485551D01*
X18485551Y-134252772D01*
X18694393Y-133998298D01*
X18877286Y-133724579D01*
X19032469Y-133434251D01*
X19158448Y-133130111D01*
X19254010Y-132815087D01*
X19254012Y-132815077D01*
X19254015Y-132815066D01*
X19282916Y-132669760D01*
X19318233Y-132492213D01*
X19350500Y-132164600D01*
X19350500Y-131835400D01*
X19318233Y-131507787D01*
X19276346Y-131297203D01*
X19254015Y-131184933D01*
X19254012Y-131184922D01*
X19254011Y-131184919D01*
X19254010Y-131184913D01*
X19158448Y-130869889D01*
X19032469Y-130565749D01*
X18877286Y-130275421D01*
X18694393Y-130001702D01*
X18485551Y-129747228D01*
X18485550Y-129747227D01*
X18485546Y-129747222D01*
X18252777Y-129514453D01*
X17998303Y-129305611D01*
X17998302Y-129305610D01*
X17998298Y-129305607D01*
X17724579Y-129122714D01*
X17724574Y-129122711D01*
X17724567Y-129122707D01*
X17451609Y-128976809D01*
X17434251Y-128967531D01*
X17434244Y-128967528D01*
X17130112Y-128841552D01*
X16815077Y-128745987D01*
X16815066Y-128745984D01*
X16492218Y-128681768D01*
X16492213Y-128681767D01*
X16492211Y-128681766D01*
X16492201Y-128681765D01*
X16251522Y-128658061D01*
X16164600Y-128649500D01*
X15835400Y-128649500D01*
X15755540Y-128657365D01*
X15507798Y-128681765D01*
X15507781Y-128681768D01*
X15184933Y-128745984D01*
X15184922Y-128745987D01*
X14869887Y-128841552D01*
X14565755Y-128967528D01*
X14565741Y-128967535D01*
X14275432Y-129122707D01*
X14275414Y-129122718D01*
X14001710Y-129305601D01*
X14001696Y-129305611D01*
X13747222Y-129514453D01*
X13514453Y-129747222D01*
X13305611Y-130001696D01*
X13305601Y-130001710D01*
X13227602Y-130118444D01*
X13173990Y-130163249D01*
X13104665Y-130171956D01*
X13041637Y-130141801D01*
X13004918Y-130082358D01*
X13000500Y-130049553D01*
X13000500Y-109893713D01*
X14999500Y-109893713D01*
X14999500Y-110106286D01*
X15032753Y-110316239D01*
X15098444Y-110518414D01*
X15194951Y-110707820D01*
X15319890Y-110879786D01*
X15470213Y-111030109D01*
X15642179Y-111155048D01*
X15642181Y-111155049D01*
X15642184Y-111155051D01*
X15831588Y-111251557D01*
X16033757Y-111317246D01*
X16243713Y-111350500D01*
X16243714Y-111350500D01*
X16756286Y-111350500D01*
X16756287Y-111350500D01*
X16966243Y-111317246D01*
X17168412Y-111251557D01*
X17357816Y-111155051D01*
X17379789Y-111139086D01*
X17529786Y-111030109D01*
X17529788Y-111030106D01*
X17529792Y-111030104D01*
X17680104Y-110879792D01*
X17687863Y-110869113D01*
X17743194Y-110826448D01*
X17788180Y-110818000D01*
X17915566Y-110818000D01*
X22709811Y-110818000D01*
X22776850Y-110837685D01*
X22797492Y-110854319D01*
X37963181Y-126020007D01*
X37996666Y-126081330D01*
X37999500Y-126107688D01*
X37999500Y-128700001D01*
X37999501Y-128700018D01*
X38010000Y-128802796D01*
X38010001Y-128802799D01*
X38065185Y-128969331D01*
X38065187Y-128969336D01*
X38076719Y-128988032D01*
X38157288Y-129118656D01*
X38281344Y-129242712D01*
X38430666Y-129334814D01*
X38597203Y-129389999D01*
X38699991Y-129400500D01*
X39300008Y-129400499D01*
X39300016Y-129400498D01*
X39300019Y-129400498D01*
X39356302Y-129394748D01*
X39402797Y-129389999D01*
X39569334Y-129334814D01*
X39718656Y-129242712D01*
X39842712Y-129118656D01*
X39894461Y-129034756D01*
X39946409Y-128988032D01*
X40015371Y-128976809D01*
X40079454Y-129004653D01*
X40105538Y-129034756D01*
X40157288Y-129118656D01*
X40281344Y-129242712D01*
X40430666Y-129334814D01*
X40597203Y-129389999D01*
X40699991Y-129400500D01*
X41300008Y-129400499D01*
X41300016Y-129400498D01*
X41300019Y-129400498D01*
X41356302Y-129394748D01*
X41402797Y-129389999D01*
X41569334Y-129334814D01*
X41718656Y-129242712D01*
X41842712Y-129118656D01*
X41934814Y-128969334D01*
X41989999Y-128802797D01*
X42000500Y-128700009D01*
X42000499Y-125599992D01*
X41989999Y-125497203D01*
X41953605Y-125387375D01*
X41951204Y-125317552D01*
X41983629Y-125260696D01*
X52507507Y-114736817D01*
X52568830Y-114703333D01*
X52595188Y-114700499D01*
X52900002Y-114700499D01*
X52900008Y-114700499D01*
X53002797Y-114689999D01*
X53169334Y-114634814D01*
X53318656Y-114542712D01*
X53412319Y-114449049D01*
X53473642Y-114415564D01*
X53543334Y-114420548D01*
X53587681Y-114449049D01*
X53681344Y-114542712D01*
X53830666Y-114634814D01*
X53997203Y-114689999D01*
X54099991Y-114700500D01*
X54725008Y-114700499D01*
X54725016Y-114700498D01*
X54725019Y-114700498D01*
X54781302Y-114694748D01*
X54827797Y-114689999D01*
X54994334Y-114634814D01*
X55143656Y-114542712D01*
X55267712Y-114418656D01*
X55359814Y-114269334D01*
X55414999Y-114102797D01*
X55425500Y-114000009D01*
X55425499Y-112999992D01*
X55414999Y-112897203D01*
X55359814Y-112730666D01*
X55267712Y-112581344D01*
X55143656Y-112457288D01*
X55143655Y-112457287D01*
X55071902Y-112413029D01*
X55025178Y-112361081D01*
X55013000Y-112307491D01*
X55013000Y-102467597D01*
X55032685Y-102400558D01*
X55049319Y-102379916D01*
X59762416Y-97666819D01*
X59823739Y-97633334D01*
X59850097Y-97630500D01*
X60306613Y-97630500D01*
X60306616Y-97630500D01*
X60377196Y-97624086D01*
X60539606Y-97573478D01*
X60685185Y-97485472D01*
X60805472Y-97365185D01*
X60893478Y-97219606D01*
X60944086Y-97057196D01*
X60950500Y-96986616D01*
X60950500Y-96473384D01*
X60944086Y-96402804D01*
X60893478Y-96240394D01*
X60805472Y-96094815D01*
X60805470Y-96094813D01*
X60805469Y-96094811D01*
X60685188Y-95974530D01*
X60539606Y-95886522D01*
X60519619Y-95880294D01*
X60377196Y-95835914D01*
X60377194Y-95835913D01*
X60377192Y-95835913D01*
X60327778Y-95831423D01*
X60306616Y-95829500D01*
X59393384Y-95829500D01*
X59374145Y-95831248D01*
X59322807Y-95835913D01*
X59160393Y-95886522D01*
X59014811Y-95974530D01*
X58894530Y-96094811D01*
X58806522Y-96240393D01*
X58755913Y-96402807D01*
X58749500Y-96473386D01*
X58749500Y-96929902D01*
X58729815Y-96996941D01*
X58713181Y-97017583D01*
X53931981Y-101798782D01*
X53931979Y-101798785D01*
X53881861Y-101885594D01*
X53881859Y-101885596D01*
X53852925Y-101935709D01*
X53852924Y-101935710D01*
X53852923Y-101935715D01*
X53811999Y-102088443D01*
X53811999Y-102088445D01*
X53811999Y-102256546D01*
X53812000Y-102256559D01*
X53812000Y-112307491D01*
X53811599Y-112308853D01*
X53811970Y-112310225D01*
X53801783Y-112342284D01*
X53792315Y-112374530D01*
X53791103Y-112375897D01*
X53790812Y-112376814D01*
X53787323Y-112380163D01*
X53767116Y-112402972D01*
X53760451Y-112408494D01*
X53681344Y-112457288D01*
X53583579Y-112555052D01*
X53579116Y-112558751D01*
X53552134Y-112570360D01*
X53526358Y-112584436D01*
X53520411Y-112584010D01*
X53514936Y-112586367D01*
X53485964Y-112581547D01*
X53456666Y-112579452D01*
X53450831Y-112575702D01*
X53446014Y-112574901D01*
X53437294Y-112567002D01*
X53412319Y-112550951D01*
X53318657Y-112457289D01*
X53318656Y-112457288D01*
X53188000Y-112376699D01*
X53169336Y-112365187D01*
X53169331Y-112365185D01*
X53100220Y-112342284D01*
X53002797Y-112310001D01*
X53002795Y-112310000D01*
X52900010Y-112299500D01*
X52274998Y-112299500D01*
X52274980Y-112299501D01*
X52172203Y-112310000D01*
X52172200Y-112310001D01*
X52005668Y-112365185D01*
X52005663Y-112365187D01*
X51856342Y-112457289D01*
X51732289Y-112581342D01*
X51640187Y-112730663D01*
X51640186Y-112730666D01*
X51585001Y-112897203D01*
X51585001Y-112897204D01*
X51585000Y-112897204D01*
X51574500Y-112999983D01*
X51574500Y-113304810D01*
X51554815Y-113371849D01*
X51538181Y-113392491D01*
X40364620Y-124566051D01*
X40364617Y-124566055D01*
X40275100Y-124700025D01*
X40275093Y-124700038D01*
X40213436Y-124848893D01*
X40213433Y-124848905D01*
X40182000Y-125006929D01*
X40182000Y-125106990D01*
X40177228Y-125123682D01*
X40177465Y-125140218D01*
X40166118Y-125162547D01*
X40163265Y-125172529D01*
X40158582Y-125180049D01*
X40157288Y-125181344D01*
X40105411Y-125265450D01*
X40105265Y-125265685D01*
X40079403Y-125288750D01*
X40053591Y-125311967D01*
X40053323Y-125312010D01*
X40053121Y-125312191D01*
X40018901Y-125317612D01*
X39984628Y-125323190D01*
X39984378Y-125323081D01*
X39984112Y-125323124D01*
X39952372Y-125309175D01*
X39920546Y-125295346D01*
X39920323Y-125295089D01*
X39920147Y-125295012D01*
X39919789Y-125294473D01*
X39894461Y-125265243D01*
X39891655Y-125260694D01*
X39842712Y-125181344D01*
X39718656Y-125057288D01*
X39569334Y-124965186D01*
X39402797Y-124910001D01*
X39402795Y-124910000D01*
X39300016Y-124899500D01*
X39300009Y-124899500D01*
X39207688Y-124899500D01*
X39140649Y-124879815D01*
X39120007Y-124863181D01*
X23621448Y-109364620D01*
X23621444Y-109364617D01*
X23487474Y-109275100D01*
X23487461Y-109275093D01*
X23338606Y-109213436D01*
X23338594Y-109213433D01*
X23180570Y-109182000D01*
X23180566Y-109182000D01*
X20109189Y-109182000D01*
X20042150Y-109162315D01*
X19996395Y-109109511D01*
X19986451Y-109040353D01*
X20015476Y-108976797D01*
X20021508Y-108970319D01*
X44509379Y-84482448D01*
X44509382Y-84482445D01*
X44598903Y-84348468D01*
X44635198Y-84260843D01*
X44660565Y-84199602D01*
X44692000Y-84041566D01*
X44692000Y-77554800D01*
X44711685Y-77487761D01*
X44764488Y-77442006D01*
X44957126Y-77354507D01*
X45142154Y-77226319D01*
X45301319Y-77067154D01*
X45429507Y-76882126D01*
X45522596Y-76677183D01*
X45577596Y-76458912D01*
X45588000Y-76326717D01*
X45587999Y-73498284D01*
X45577596Y-73366088D01*
X45522596Y-73147817D01*
X45429507Y-72942874D01*
X45301319Y-72757846D01*
X45142154Y-72598681D01*
X45142150Y-72598678D01*
X45142145Y-72598674D01*
X44957132Y-72470497D01*
X44957130Y-72470495D01*
X44957126Y-72470493D01*
X44752183Y-72377404D01*
X44752181Y-72377403D01*
X44752178Y-72377402D01*
X44533920Y-72322405D01*
X44533913Y-72322404D01*
X44489847Y-72318936D01*
X44401717Y-72312000D01*
X44401715Y-72312000D01*
X42773291Y-72312000D01*
X42773276Y-72312001D01*
X42641086Y-72322404D01*
X42641079Y-72322405D01*
X42422821Y-72377402D01*
X42422818Y-72377403D01*
X42217877Y-72470491D01*
X42217867Y-72470497D01*
X42032854Y-72598674D01*
X42032842Y-72598684D01*
X41873684Y-72757842D01*
X41873674Y-72757854D01*
X41745497Y-72942867D01*
X41745491Y-72942877D01*
X41652403Y-73147818D01*
X41652402Y-73147821D01*
X41597405Y-73366079D01*
X41597404Y-73366086D01*
X41587000Y-73498277D01*
X41587000Y-76326708D01*
X41587001Y-76326723D01*
X41597404Y-76458913D01*
X41597405Y-76458920D01*
X41652402Y-76677178D01*
X41652403Y-76677181D01*
X41745491Y-76882122D01*
X41745497Y-76882132D01*
X41873674Y-77067145D01*
X41873678Y-77067150D01*
X41873681Y-77067154D01*
X42032846Y-77226319D01*
X42032850Y-77226322D01*
X42032854Y-77226325D01*
X42123527Y-77289143D01*
X42217874Y-77354507D01*
X42422817Y-77447596D01*
X42422821Y-77447597D01*
X42641079Y-77502594D01*
X42641081Y-77502594D01*
X42641088Y-77502596D01*
X42773283Y-77513000D01*
X42932000Y-77512999D01*
X42999039Y-77532683D01*
X43044794Y-77585487D01*
X43056000Y-77636999D01*
X43056000Y-83570810D01*
X43036315Y-83637849D01*
X43019681Y-83658491D01*
X17706715Y-108971457D01*
X17645392Y-109004942D01*
X17575700Y-108999958D01*
X17533611Y-108972908D01*
X17533488Y-108973053D01*
X17532429Y-108972149D01*
X17531353Y-108971457D01*
X17529786Y-108969890D01*
X17357820Y-108844951D01*
X17168414Y-108748444D01*
X17168413Y-108748443D01*
X17168412Y-108748443D01*
X16966243Y-108682754D01*
X16966241Y-108682753D01*
X16966240Y-108682753D01*
X16804957Y-108657208D01*
X16756287Y-108649500D01*
X16243713Y-108649500D01*
X16195042Y-108657208D01*
X16033760Y-108682753D01*
X15831585Y-108748444D01*
X15642179Y-108844951D01*
X15470213Y-108969890D01*
X15319890Y-109120213D01*
X15194951Y-109292179D01*
X15098444Y-109481585D01*
X15032753Y-109683760D01*
X14999500Y-109893713D01*
X13000500Y-109893713D01*
X13000500Y-84260836D01*
X19887000Y-84260836D01*
X19887000Y-84564163D01*
X19920957Y-84865548D01*
X19920960Y-84865562D01*
X19988453Y-85161271D01*
X19988457Y-85161283D01*
X20088633Y-85447568D01*
X20220233Y-85720838D01*
X20220235Y-85720841D01*
X20381608Y-85977664D01*
X20570721Y-86214804D01*
X20785196Y-86429279D01*
X21022336Y-86618392D01*
X21279159Y-86779765D01*
X21552435Y-86911368D01*
X21767451Y-86986605D01*
X21838716Y-87011542D01*
X21838728Y-87011546D01*
X22134437Y-87079040D01*
X22134446Y-87079041D01*
X22134451Y-87079042D01*
X22335374Y-87101680D01*
X22435837Y-87112999D01*
X22435840Y-87113000D01*
X22435843Y-87113000D01*
X22739160Y-87113000D01*
X22739161Y-87112999D01*
X22893194Y-87095644D01*
X23040548Y-87079042D01*
X23040551Y-87079041D01*
X23040563Y-87079040D01*
X23336272Y-87011546D01*
X23622565Y-86911368D01*
X23895841Y-86779765D01*
X24152664Y-86618392D01*
X24389804Y-86429279D01*
X24604279Y-86214804D01*
X24793392Y-85977664D01*
X24954765Y-85720841D01*
X25086368Y-85447565D01*
X25186546Y-85161272D01*
X25254040Y-84865563D01*
X25288000Y-84564157D01*
X25288000Y-84260843D01*
X25276680Y-84160374D01*
X25254042Y-83959451D01*
X25254041Y-83959446D01*
X25254040Y-83959437D01*
X25186546Y-83663728D01*
X25184713Y-83658491D01*
X25116984Y-83464931D01*
X25086368Y-83377435D01*
X24954765Y-83104159D01*
X24793392Y-82847336D01*
X24604279Y-82610196D01*
X24389804Y-82395721D01*
X24152664Y-82206608D01*
X23895841Y-82045235D01*
X23895838Y-82045233D01*
X23622568Y-81913633D01*
X23336283Y-81813457D01*
X23336271Y-81813453D01*
X23108056Y-81761364D01*
X23040563Y-81745960D01*
X23040560Y-81745959D01*
X23040548Y-81745957D01*
X22739163Y-81712000D01*
X22739157Y-81712000D01*
X22435843Y-81712000D01*
X22435836Y-81712000D01*
X22134451Y-81745957D01*
X22134437Y-81745960D01*
X21838728Y-81813453D01*
X21838716Y-81813457D01*
X21552431Y-81913633D01*
X21279161Y-82045233D01*
X21022337Y-82206607D01*
X20785196Y-82395720D01*
X20570720Y-82610196D01*
X20381607Y-82847337D01*
X20220233Y-83104161D01*
X20088633Y-83377431D01*
X19988457Y-83663716D01*
X19988453Y-83663728D01*
X19920960Y-83959437D01*
X19920957Y-83959451D01*
X19887000Y-84260836D01*
X13000500Y-84260836D01*
X13000500Y-40618535D01*
X13020185Y-40551496D01*
X13072989Y-40505741D01*
X13124541Y-40494536D01*
X61870549Y-40513728D01*
G37*
%TD.AperFunction*%
%TD*%
%TA.AperFunction,NonConductor*%
G36*
X13205703Y-133856733D02*
G01*
X13227602Y-133881555D01*
X13305601Y-133998289D01*
X13305611Y-133998303D01*
X13514453Y-134252777D01*
X13747222Y-134485546D01*
X13747227Y-134485550D01*
X13747228Y-134485551D01*
X14001702Y-134694393D01*
X14118445Y-134772398D01*
X14163250Y-134826010D01*
X14171957Y-134895335D01*
X14141803Y-134958362D01*
X14082360Y-134995082D01*
X14049554Y-134999500D01*
X13124500Y-134999500D01*
X13057461Y-134979815D01*
X13011706Y-134927011D01*
X13000500Y-134875500D01*
X13000500Y-133950446D01*
X13020185Y-133883407D01*
X13072989Y-133837652D01*
X13142147Y-133827708D01*
X13205703Y-133856733D01*
G37*
%TD.AperFunction*%
%TA.AperFunction,Conductor*%
%TO.N,/5V GND*%
G36*
X189042539Y-111920185D02*
G01*
X189088294Y-111972989D01*
X189099500Y-112024500D01*
X189099500Y-115475500D01*
X189079815Y-115542539D01*
X189027011Y-115588294D01*
X188975500Y-115599500D01*
X179524500Y-115599500D01*
X179457461Y-115579815D01*
X179411706Y-115527011D01*
X179400500Y-115475500D01*
X179400500Y-114645630D01*
X179420185Y-114578591D01*
X179472989Y-114532836D01*
X179542147Y-114522892D01*
X179589597Y-114540091D01*
X179593840Y-114542708D01*
X179593844Y-114542712D01*
X179743166Y-114634814D01*
X179909703Y-114689999D01*
X180012491Y-114700500D01*
X180637508Y-114700499D01*
X180637516Y-114700498D01*
X180637519Y-114700498D01*
X180693802Y-114694748D01*
X180740297Y-114689999D01*
X180906834Y-114634814D01*
X181056156Y-114542712D01*
X181162050Y-114436818D01*
X181223373Y-114403334D01*
X181249731Y-114400500D01*
X182088693Y-114400500D01*
X182088694Y-114400499D01*
X182262666Y-114365895D01*
X182344606Y-114331953D01*
X182426547Y-114298013D01*
X182514959Y-114238936D01*
X182574036Y-114199464D01*
X184836681Y-111936819D01*
X184898004Y-111903334D01*
X184924362Y-111900500D01*
X188975500Y-111900500D01*
X189042539Y-111920185D01*
G37*
%TD.AperFunction*%
%TA.AperFunction,Conductor*%
G36*
X174066702Y-40519685D02*
G01*
X174112457Y-40572489D01*
X174122401Y-40641647D01*
X174111383Y-40677802D01*
X174012281Y-40883587D01*
X173912105Y-41169872D01*
X173912101Y-41169884D01*
X173844608Y-41465593D01*
X173844605Y-41465607D01*
X173810648Y-41766992D01*
X173810648Y-42070319D01*
X173844605Y-42371704D01*
X173844608Y-42371718D01*
X173912101Y-42667427D01*
X173912105Y-42667439D01*
X174012281Y-42953724D01*
X174143881Y-43226994D01*
X174143883Y-43226997D01*
X174305256Y-43483820D01*
X174494369Y-43720960D01*
X174708844Y-43935435D01*
X174945984Y-44124548D01*
X175202807Y-44285921D01*
X175476083Y-44417524D01*
X175691099Y-44492761D01*
X175762364Y-44517698D01*
X175762376Y-44517702D01*
X176058085Y-44585196D01*
X176058094Y-44585197D01*
X176058099Y-44585198D01*
X176259022Y-44607836D01*
X176359485Y-44619155D01*
X176359488Y-44619156D01*
X176359491Y-44619156D01*
X176662808Y-44619156D01*
X176662809Y-44619155D01*
X176816842Y-44601800D01*
X176964196Y-44585198D01*
X176964199Y-44585197D01*
X176964211Y-44585196D01*
X177259920Y-44517702D01*
X177546213Y-44417524D01*
X177819489Y-44285921D01*
X178076312Y-44124548D01*
X178313452Y-43935435D01*
X178527927Y-43720960D01*
X178717040Y-43483820D01*
X178878413Y-43226997D01*
X179010016Y-42953721D01*
X179110194Y-42667428D01*
X179177688Y-42371719D01*
X179211648Y-42070313D01*
X179211648Y-41766999D01*
X179177688Y-41465593D01*
X179110194Y-41169884D01*
X179010016Y-40883591D01*
X178910912Y-40677801D01*
X178899561Y-40608861D01*
X178927283Y-40544726D01*
X178985278Y-40505760D01*
X179022633Y-40500000D01*
X196875500Y-40500000D01*
X196942539Y-40519685D01*
X196988294Y-40572489D01*
X196999500Y-40624000D01*
X196999500Y-130660078D01*
X196979815Y-130727117D01*
X196927011Y-130772872D01*
X196857853Y-130782816D01*
X196794297Y-130753791D01*
X196756523Y-130695013D01*
X196754769Y-130687878D01*
X196754754Y-130687882D01*
X196754012Y-130684922D01*
X196754011Y-130684919D01*
X196754010Y-130684913D01*
X196658448Y-130369889D01*
X196532469Y-130065749D01*
X196377286Y-129775421D01*
X196194393Y-129501702D01*
X195985551Y-129247228D01*
X195985550Y-129247227D01*
X195985546Y-129247222D01*
X195752777Y-129014453D01*
X195498303Y-128805611D01*
X195498302Y-128805610D01*
X195498298Y-128805607D01*
X195224579Y-128622714D01*
X195224574Y-128622711D01*
X195224567Y-128622707D01*
X194934258Y-128467535D01*
X194934251Y-128467531D01*
X194934244Y-128467528D01*
X194630112Y-128341552D01*
X194315077Y-128245987D01*
X194315066Y-128245984D01*
X193992218Y-128181768D01*
X193992213Y-128181767D01*
X193992211Y-128181766D01*
X193992201Y-128181765D01*
X193751522Y-128158061D01*
X193664600Y-128149500D01*
X193335400Y-128149500D01*
X193255540Y-128157365D01*
X193007798Y-128181765D01*
X193007781Y-128181768D01*
X192684933Y-128245984D01*
X192684922Y-128245987D01*
X192369887Y-128341552D01*
X192065755Y-128467528D01*
X192065741Y-128467535D01*
X191775432Y-128622707D01*
X191775414Y-128622718D01*
X191501710Y-128805601D01*
X191501696Y-128805611D01*
X191247222Y-129014453D01*
X191014453Y-129247222D01*
X190805611Y-129501696D01*
X190805601Y-129501710D01*
X190622718Y-129775414D01*
X190622707Y-129775432D01*
X190467535Y-130065741D01*
X190467528Y-130065755D01*
X190341552Y-130369887D01*
X190245987Y-130684922D01*
X190245984Y-130684933D01*
X190181768Y-131007781D01*
X190181765Y-131007798D01*
X190149500Y-131335403D01*
X190149500Y-131664596D01*
X190181765Y-131992201D01*
X190181768Y-131992218D01*
X190245984Y-132315066D01*
X190245987Y-132315077D01*
X190341552Y-132630112D01*
X190467528Y-132934244D01*
X190467535Y-132934258D01*
X190622707Y-133224567D01*
X190622718Y-133224585D01*
X190805601Y-133498289D01*
X190805611Y-133498303D01*
X191014453Y-133752777D01*
X191247222Y-133985546D01*
X191247227Y-133985550D01*
X191247228Y-133985551D01*
X191501702Y-134194393D01*
X191775421Y-134377286D01*
X192065749Y-134532469D01*
X192369889Y-134658448D01*
X192684913Y-134754010D01*
X192684919Y-134754011D01*
X192684922Y-134754012D01*
X192687882Y-134754754D01*
X192687656Y-134755654D01*
X192746179Y-134786266D01*
X192780755Y-134846981D01*
X192777017Y-134916750D01*
X192736151Y-134973423D01*
X192671134Y-134999006D01*
X192660079Y-134999500D01*
X163624000Y-134999500D01*
X163556961Y-134979815D01*
X163511206Y-134927011D01*
X163500000Y-134875500D01*
X163500000Y-98911303D01*
X170599500Y-98911303D01*
X170599500Y-113588695D01*
X170634103Y-113762658D01*
X170634106Y-113762667D01*
X170701983Y-113926540D01*
X170701990Y-113926553D01*
X170800535Y-114074034D01*
X170800538Y-114074038D01*
X170925961Y-114199461D01*
X170925965Y-114199464D01*
X171073446Y-114298009D01*
X171073459Y-114298016D01*
X171155392Y-114331953D01*
X171237334Y-114365894D01*
X171237336Y-114365894D01*
X171237341Y-114365896D01*
X171411304Y-114400499D01*
X171411307Y-114400500D01*
X171411309Y-114400500D01*
X171588691Y-114400500D01*
X177475500Y-114400500D01*
X177542539Y-114420185D01*
X177588294Y-114472989D01*
X177599500Y-114524500D01*
X177599500Y-116588695D01*
X177634103Y-116762658D01*
X177634106Y-116762667D01*
X177701983Y-116926540D01*
X177701990Y-116926553D01*
X177800535Y-117074034D01*
X177800538Y-117074038D01*
X177925961Y-117199461D01*
X177925965Y-117199464D01*
X178073446Y-117298009D01*
X178073459Y-117298016D01*
X178196363Y-117348923D01*
X178237334Y-117365894D01*
X178237336Y-117365894D01*
X178237341Y-117365896D01*
X178411304Y-117400499D01*
X178411307Y-117400500D01*
X178411309Y-117400500D01*
X190088693Y-117400500D01*
X190088694Y-117400499D01*
X190146682Y-117388964D01*
X190262658Y-117365896D01*
X190262661Y-117365894D01*
X190262666Y-117365894D01*
X190426547Y-117298013D01*
X190574035Y-117199464D01*
X190699464Y-117074035D01*
X190798013Y-116926547D01*
X190865894Y-116762666D01*
X190900500Y-116588691D01*
X190900500Y-111924362D01*
X190909144Y-111894921D01*
X190915668Y-111864935D01*
X190919422Y-111859919D01*
X190920185Y-111857323D01*
X190936819Y-111836681D01*
X190996681Y-111776819D01*
X191058004Y-111743334D01*
X191084362Y-111740500D01*
X194248693Y-111740500D01*
X194248694Y-111740499D01*
X194422666Y-111705895D01*
X194504606Y-111671953D01*
X194586547Y-111638013D01*
X194677042Y-111577546D01*
X194734036Y-111539464D01*
X195199464Y-111074035D01*
X195206123Y-111064069D01*
X195298013Y-110926547D01*
X195346182Y-110810256D01*
X195365895Y-110762666D01*
X195400500Y-110588691D01*
X195400500Y-110411308D01*
X195400500Y-107711309D01*
X195400500Y-107711306D01*
X195400499Y-107711304D01*
X195365896Y-107537341D01*
X195365893Y-107537332D01*
X195298016Y-107373459D01*
X195298009Y-107373446D01*
X195199464Y-107225965D01*
X195199461Y-107225961D01*
X195074038Y-107100538D01*
X195074034Y-107100535D01*
X194926553Y-107001990D01*
X194926540Y-107001983D01*
X194762667Y-106934106D01*
X194762658Y-106934103D01*
X194588694Y-106899500D01*
X194588691Y-106899500D01*
X192068809Y-106899500D01*
X192009955Y-106911206D01*
X191980234Y-106917118D01*
X191956044Y-106919500D01*
X191509629Y-106919500D01*
X191509623Y-106919501D01*
X191450016Y-106925908D01*
X191315171Y-106976202D01*
X191315164Y-106976206D01*
X191199955Y-107062452D01*
X191199952Y-107062455D01*
X191113706Y-107177664D01*
X191113702Y-107177671D01*
X191063410Y-107312513D01*
X191063409Y-107312517D01*
X191057000Y-107372127D01*
X191057000Y-107588696D01*
X191057001Y-107795500D01*
X191054450Y-107804186D01*
X191055739Y-107813147D01*
X191044761Y-107837183D01*
X191037317Y-107862539D01*
X191030474Y-107868467D01*
X191026714Y-107876703D01*
X191004482Y-107890989D01*
X190984513Y-107908294D01*
X190973997Y-107910581D01*
X190967936Y-107914477D01*
X190933001Y-107919500D01*
X190744362Y-107919500D01*
X190677323Y-107899815D01*
X190656681Y-107883181D01*
X189574041Y-106800540D01*
X189574034Y-106800534D01*
X189426548Y-106701988D01*
X189262666Y-106634105D01*
X189262658Y-106634103D01*
X189088696Y-106599500D01*
X189088692Y-106599500D01*
X188911308Y-106599500D01*
X188911303Y-106599500D01*
X188737341Y-106634103D01*
X188737333Y-106634105D01*
X188573451Y-106701988D01*
X188425965Y-106800534D01*
X188425958Y-106800540D01*
X188300540Y-106925958D01*
X188300534Y-106925965D01*
X188201988Y-107073451D01*
X188134105Y-107237333D01*
X188134103Y-107237341D01*
X188099500Y-107411303D01*
X188099500Y-107588696D01*
X188134103Y-107762658D01*
X188134105Y-107762666D01*
X188201988Y-107926548D01*
X188300534Y-108074034D01*
X188300540Y-108074041D01*
X188934319Y-108707819D01*
X188967804Y-108769142D01*
X188962820Y-108838833D01*
X188920949Y-108894767D01*
X188855484Y-108919184D01*
X188846638Y-108919500D01*
X181349500Y-108919500D01*
X181282461Y-108899815D01*
X181236706Y-108847011D01*
X181225500Y-108795500D01*
X181225500Y-105880398D01*
X181243961Y-105815301D01*
X181272314Y-105769334D01*
X181327499Y-105602797D01*
X181338000Y-105500009D01*
X181337999Y-104499992D01*
X181327499Y-104397203D01*
X181272314Y-104230666D01*
X181180212Y-104081344D01*
X181056156Y-103957288D01*
X180906834Y-103865186D01*
X180740297Y-103810001D01*
X180740295Y-103810000D01*
X180637510Y-103799500D01*
X180012498Y-103799500D01*
X180012480Y-103799501D01*
X179909703Y-103810000D01*
X179909700Y-103810001D01*
X179743168Y-103865185D01*
X179743163Y-103865187D01*
X179593842Y-103957289D01*
X179500181Y-104050951D01*
X179438858Y-104084436D01*
X179369166Y-104079452D01*
X179324819Y-104050951D01*
X179231157Y-103957289D01*
X179231156Y-103957288D01*
X179081834Y-103865186D01*
X178915297Y-103810001D01*
X178915295Y-103810000D01*
X178812510Y-103799500D01*
X178187498Y-103799500D01*
X178187480Y-103799501D01*
X178084703Y-103810000D01*
X178084700Y-103810001D01*
X177918168Y-103865185D01*
X177918163Y-103865187D01*
X177768845Y-103957287D01*
X177662950Y-104063182D01*
X177601627Y-104096666D01*
X177575269Y-104099500D01*
X172524500Y-104099500D01*
X172457461Y-104079815D01*
X172411706Y-104027011D01*
X172400500Y-103975500D01*
X172400500Y-99424361D01*
X172420185Y-99357322D01*
X172436819Y-99336680D01*
X179962680Y-91810819D01*
X180024003Y-91777334D01*
X180050361Y-91774500D01*
X187962693Y-91774500D01*
X187962694Y-91774499D01*
X188020682Y-91762964D01*
X188136658Y-91739896D01*
X188136661Y-91739894D01*
X188136666Y-91739894D01*
X188300547Y-91672013D01*
X188448035Y-91573464D01*
X188573464Y-91448035D01*
X188672013Y-91300547D01*
X188739894Y-91136666D01*
X188774500Y-90962691D01*
X188774500Y-69469753D01*
X188739895Y-69295778D01*
X188691895Y-69179896D01*
X188672013Y-69131897D01*
X188573464Y-68984409D01*
X188448035Y-68858980D01*
X187231814Y-67642758D01*
X180706657Y-61117601D01*
X180673172Y-61056278D01*
X180670338Y-61029920D01*
X180670338Y-59709964D01*
X180670338Y-59709952D01*
X180667507Y-59662411D01*
X180637876Y-59526199D01*
X180622521Y-59455611D01*
X180622519Y-59455605D01*
X180539211Y-59261064D01*
X180539209Y-59261059D01*
X180420584Y-59085791D01*
X180270934Y-58936141D01*
X180095666Y-58817516D01*
X180095661Y-58817514D01*
X180095660Y-58817513D01*
X179901119Y-58734205D01*
X179901112Y-58734203D01*
X179694319Y-58689219D01*
X179694318Y-58689218D01*
X179694314Y-58689218D01*
X179646774Y-58686386D01*
X179646761Y-58686386D01*
X178262173Y-58686386D01*
X178262170Y-58686386D01*
X178262161Y-58686387D01*
X178214620Y-58689218D01*
X178214615Y-58689218D01*
X178214615Y-58689219D01*
X178007820Y-58734203D01*
X178007814Y-58734205D01*
X177813273Y-58817513D01*
X177813265Y-58817518D01*
X177733160Y-58871733D01*
X177666608Y-58893006D01*
X177599119Y-58874921D01*
X177594179Y-58871747D01*
X177514275Y-58817666D01*
X177514270Y-58817664D01*
X177514269Y-58817663D01*
X177319509Y-58734261D01*
X177319503Y-58734259D01*
X177112478Y-58689225D01*
X177112477Y-58689224D01*
X177112473Y-58689224D01*
X177064867Y-58686388D01*
X175677595Y-58686388D01*
X175629989Y-58689224D01*
X175629984Y-58689224D01*
X175629983Y-58689225D01*
X175422958Y-58734259D01*
X175422952Y-58734261D01*
X175228192Y-58817663D01*
X175228188Y-58817665D01*
X175228187Y-58817666D01*
X175162787Y-58861929D01*
X175052724Y-58936422D01*
X175052719Y-58936426D01*
X174902905Y-59086240D01*
X174902901Y-59086245D01*
X174842348Y-59175713D01*
X174784585Y-59261059D01*
X174784142Y-59261713D01*
X174700740Y-59456473D01*
X174700738Y-59456479D01*
X174655943Y-59662406D01*
X174655703Y-59663510D01*
X174652867Y-59711116D01*
X174652867Y-61670602D01*
X174655703Y-61718208D01*
X174655703Y-61718212D01*
X174655704Y-61718213D01*
X174700738Y-61925238D01*
X174700740Y-61925244D01*
X174784142Y-62120004D01*
X174784145Y-62120010D01*
X174902903Y-62295475D01*
X175052722Y-62445294D01*
X175228187Y-62564052D01*
X175228189Y-62564053D01*
X175228191Y-62564054D01*
X175380578Y-62629310D01*
X175434456Y-62673795D01*
X175455730Y-62740347D01*
X175455765Y-62743298D01*
X175455765Y-66444961D01*
X175490368Y-66618923D01*
X175490370Y-66618931D01*
X175521791Y-66694789D01*
X175521794Y-66694794D01*
X175524311Y-66700871D01*
X175558252Y-66782812D01*
X175617328Y-66871224D01*
X175620434Y-66875872D01*
X175620437Y-66875878D01*
X175656802Y-66930303D01*
X177642758Y-68916257D01*
X177710910Y-68984409D01*
X177768188Y-69041687D01*
X177915668Y-69140231D01*
X177915681Y-69140238D01*
X178011426Y-69179896D01*
X178079556Y-69208116D01*
X178122157Y-69216590D01*
X178253527Y-69242722D01*
X178253530Y-69242722D01*
X178253531Y-69242722D01*
X186233416Y-69242722D01*
X186300455Y-69262407D01*
X186321097Y-69279041D01*
X186937181Y-69895124D01*
X186970666Y-69956447D01*
X186973500Y-69982805D01*
X186973500Y-89849500D01*
X186953815Y-89916539D01*
X186901011Y-89962294D01*
X186849500Y-89973500D01*
X179537306Y-89973500D01*
X179363341Y-90008103D01*
X179363332Y-90008106D01*
X179199459Y-90075983D01*
X179199446Y-90075990D01*
X179051966Y-90174534D01*
X179051964Y-90174537D01*
X170800538Y-98425960D01*
X170800537Y-98425961D01*
X170761064Y-98485039D01*
X170761063Y-98485040D01*
X170701985Y-98573455D01*
X170668046Y-98655393D01*
X170634106Y-98737329D01*
X170634103Y-98737341D01*
X170599500Y-98911303D01*
X163500000Y-98911303D01*
X163500000Y-57007270D01*
X189272767Y-57007270D01*
X189272767Y-57310597D01*
X189306724Y-57611982D01*
X189306727Y-57611996D01*
X189374220Y-57907705D01*
X189374224Y-57907717D01*
X189474400Y-58194002D01*
X189606000Y-58467272D01*
X189606002Y-58467275D01*
X189767375Y-58724098D01*
X189956488Y-58961238D01*
X190170963Y-59175713D01*
X190408103Y-59364826D01*
X190664926Y-59526199D01*
X190938202Y-59657802D01*
X191153218Y-59733039D01*
X191224483Y-59757976D01*
X191224495Y-59757980D01*
X191520204Y-59825474D01*
X191520213Y-59825475D01*
X191520218Y-59825476D01*
X191721141Y-59848114D01*
X191821604Y-59859433D01*
X191821607Y-59859434D01*
X191821610Y-59859434D01*
X192124927Y-59859434D01*
X192124928Y-59859433D01*
X192278961Y-59842078D01*
X192426315Y-59825476D01*
X192426318Y-59825475D01*
X192426330Y-59825474D01*
X192722039Y-59757980D01*
X193008332Y-59657802D01*
X193281608Y-59526199D01*
X193538431Y-59364826D01*
X193775571Y-59175713D01*
X193990046Y-58961238D01*
X194179159Y-58724098D01*
X194340532Y-58467275D01*
X194472135Y-58193999D01*
X194572313Y-57907706D01*
X194639807Y-57611997D01*
X194673767Y-57310591D01*
X194673767Y-57007277D01*
X194639807Y-56705871D01*
X194572313Y-56410162D01*
X194472135Y-56123869D01*
X194340532Y-55850593D01*
X194179159Y-55593770D01*
X193990046Y-55356630D01*
X193775571Y-55142155D01*
X193538431Y-54953042D01*
X193281608Y-54791669D01*
X193281605Y-54791667D01*
X193008335Y-54660067D01*
X192722050Y-54559891D01*
X192722038Y-54559887D01*
X192493823Y-54507798D01*
X192426330Y-54492394D01*
X192426327Y-54492393D01*
X192426315Y-54492391D01*
X192124930Y-54458434D01*
X192124924Y-54458434D01*
X191821610Y-54458434D01*
X191821603Y-54458434D01*
X191520218Y-54492391D01*
X191520204Y-54492394D01*
X191224495Y-54559887D01*
X191224483Y-54559891D01*
X190938198Y-54660067D01*
X190664928Y-54791667D01*
X190408104Y-54953041D01*
X190170963Y-55142154D01*
X189956487Y-55356630D01*
X189767374Y-55593771D01*
X189606000Y-55850595D01*
X189474400Y-56123865D01*
X189374224Y-56410150D01*
X189374220Y-56410162D01*
X189306727Y-56705871D01*
X189306724Y-56705885D01*
X189272767Y-57007270D01*
X163500000Y-57007270D01*
X163500000Y-40624000D01*
X163519685Y-40556961D01*
X163572489Y-40511206D01*
X163624000Y-40500000D01*
X173999663Y-40500000D01*
X174066702Y-40519685D01*
G37*
%TD.AperFunction*%
%TD*%
%TA.AperFunction,Conductor*%
%TO.N,/19V GND*%
G36*
X162937539Y-40519685D02*
G01*
X162983294Y-40572489D01*
X162994500Y-40624000D01*
X162994500Y-134875500D01*
X162974815Y-134942539D01*
X162922011Y-134988294D01*
X162870500Y-134999500D01*
X129124000Y-134999500D01*
X129056961Y-134979815D01*
X129011206Y-134927011D01*
X129000000Y-134875500D01*
X129000000Y-130349983D01*
X146399500Y-130349983D01*
X146399500Y-131950001D01*
X146399501Y-131950018D01*
X146410000Y-132052796D01*
X146410001Y-132052799D01*
X146448531Y-132169072D01*
X146465186Y-132219334D01*
X146557288Y-132368656D01*
X146681344Y-132492712D01*
X146830666Y-132584814D01*
X146997203Y-132639999D01*
X147099991Y-132650500D01*
X148400008Y-132650499D01*
X148502797Y-132639999D01*
X148669334Y-132584814D01*
X148818656Y-132492712D01*
X148942712Y-132368656D01*
X149034814Y-132219334D01*
X149089999Y-132052797D01*
X149100500Y-131950009D01*
X149100499Y-130349992D01*
X149089999Y-130247203D01*
X149034814Y-130080666D01*
X148942712Y-129931344D01*
X148818656Y-129807288D01*
X148669334Y-129715186D01*
X148669332Y-129715185D01*
X148669329Y-129715184D01*
X148652993Y-129709771D01*
X148595549Y-129669997D01*
X148568728Y-129605481D01*
X148568000Y-129592066D01*
X148568000Y-81572188D01*
X148587685Y-81505149D01*
X148604319Y-81484507D01*
X149428275Y-80660551D01*
X153462312Y-76626513D01*
X153523633Y-76593030D01*
X153559715Y-76590578D01*
X153685783Y-76600500D01*
X155314216Y-76600499D01*
X155446412Y-76590096D01*
X155664683Y-76535096D01*
X155869626Y-76442007D01*
X156054654Y-76313819D01*
X156213819Y-76154654D01*
X156342007Y-75969626D01*
X156435096Y-75764683D01*
X156490096Y-75546412D01*
X156500500Y-75414217D01*
X156500499Y-72585784D01*
X156490096Y-72453588D01*
X156435096Y-72235317D01*
X156342007Y-72030374D01*
X156213819Y-71845346D01*
X156054654Y-71686181D01*
X156054650Y-71686178D01*
X156054645Y-71686174D01*
X155869632Y-71557997D01*
X155869630Y-71557995D01*
X155869626Y-71557993D01*
X155664683Y-71464904D01*
X155664681Y-71464903D01*
X155664678Y-71464902D01*
X155446420Y-71409905D01*
X155446413Y-71409904D01*
X155402347Y-71406436D01*
X155314217Y-71399500D01*
X155314215Y-71399500D01*
X153685791Y-71399500D01*
X153685776Y-71399501D01*
X153553586Y-71409904D01*
X153553579Y-71409905D01*
X153335321Y-71464902D01*
X153335318Y-71464903D01*
X153130377Y-71557991D01*
X153130367Y-71557997D01*
X152945354Y-71686174D01*
X152945342Y-71686184D01*
X152786184Y-71845342D01*
X152786174Y-71845354D01*
X152657997Y-72030367D01*
X152657991Y-72030377D01*
X152564903Y-72235318D01*
X152564902Y-72235321D01*
X152509905Y-72453579D01*
X152509904Y-72453586D01*
X152499500Y-72585777D01*
X152499500Y-75224310D01*
X152479815Y-75291349D01*
X152463181Y-75311991D01*
X147114620Y-80660551D01*
X147114617Y-80660555D01*
X147025098Y-80794528D01*
X147025097Y-80794531D01*
X147008973Y-80833459D01*
X147008973Y-80833460D01*
X146963435Y-80943397D01*
X146963433Y-80943405D01*
X146932000Y-81101429D01*
X146932000Y-129592066D01*
X146912315Y-129659105D01*
X146859511Y-129704860D01*
X146847007Y-129709771D01*
X146830670Y-129715184D01*
X146830663Y-129715187D01*
X146681342Y-129807289D01*
X146557289Y-129931342D01*
X146465187Y-130080663D01*
X146465186Y-130080666D01*
X146410001Y-130247203D01*
X146410001Y-130247204D01*
X146410000Y-130247204D01*
X146399500Y-130349983D01*
X129000000Y-130349983D01*
X129000000Y-83348336D01*
X130799500Y-83348336D01*
X130799500Y-83651663D01*
X130833457Y-83953048D01*
X130833460Y-83953062D01*
X130900953Y-84248771D01*
X130900957Y-84248783D01*
X131001133Y-84535068D01*
X131132733Y-84808338D01*
X131132735Y-84808341D01*
X131294108Y-85065164D01*
X131483221Y-85302304D01*
X131697696Y-85516779D01*
X131934836Y-85705892D01*
X132191659Y-85867265D01*
X132464935Y-85998868D01*
X132679951Y-86074105D01*
X132751216Y-86099042D01*
X132751228Y-86099046D01*
X133046937Y-86166540D01*
X133046946Y-86166541D01*
X133046951Y-86166542D01*
X133247874Y-86189180D01*
X133348337Y-86200499D01*
X133348340Y-86200500D01*
X133348343Y-86200500D01*
X133651660Y-86200500D01*
X133651661Y-86200499D01*
X133805694Y-86183144D01*
X133953048Y-86166542D01*
X133953051Y-86166541D01*
X133953063Y-86166540D01*
X134248772Y-86099046D01*
X134535065Y-85998868D01*
X134808341Y-85867265D01*
X135065164Y-85705892D01*
X135302304Y-85516779D01*
X135516779Y-85302304D01*
X135705892Y-85065164D01*
X135867265Y-84808341D01*
X135998868Y-84535065D01*
X136099046Y-84248772D01*
X136166540Y-83953063D01*
X136200500Y-83651657D01*
X136200500Y-83348343D01*
X136166540Y-83046937D01*
X136099046Y-82751228D01*
X135998868Y-82464935D01*
X135867265Y-82191659D01*
X135705892Y-81934836D01*
X135516779Y-81697696D01*
X135302304Y-81483221D01*
X135065164Y-81294108D01*
X134808341Y-81132735D01*
X134808338Y-81132733D01*
X134535068Y-81001133D01*
X134248783Y-80900957D01*
X134248771Y-80900953D01*
X134020556Y-80848864D01*
X133953063Y-80833460D01*
X133953060Y-80833459D01*
X133953048Y-80833457D01*
X133651663Y-80799500D01*
X133651657Y-80799500D01*
X133348343Y-80799500D01*
X133348336Y-80799500D01*
X133046951Y-80833457D01*
X133046937Y-80833460D01*
X132751228Y-80900953D01*
X132751216Y-80900957D01*
X132464931Y-81001133D01*
X132191661Y-81132733D01*
X131934837Y-81294107D01*
X131697696Y-81483220D01*
X131483220Y-81697696D01*
X131294107Y-81934837D01*
X131132733Y-82191661D01*
X131001133Y-82464931D01*
X130900957Y-82751216D01*
X130900953Y-82751228D01*
X130833460Y-83046937D01*
X130833457Y-83046951D01*
X130799500Y-83348336D01*
X129000000Y-83348336D01*
X129000000Y-40624000D01*
X129019685Y-40556961D01*
X129072489Y-40511206D01*
X129124000Y-40500000D01*
X162870500Y-40500000D01*
X162937539Y-40519685D01*
G37*
%TD.AperFunction*%
%TD*%
M02*
