%TF.GenerationSoftware,KiCad,Pcbnew,9.0.2*%
%TF.CreationDate,2026-02-24T05:03:32-05:00*%
%TF.ProjectId,PowerDistro_New,506f7765-7244-4697-9374-726f5f4e6577,rev?*%
%TF.SameCoordinates,Original*%
%TF.FileFunction,Soldermask,Top*%
%TF.FilePolarity,Negative*%
%FSLAX46Y46*%
G04 Gerber Fmt 4.6, Leading zero omitted, Abs format (unit mm)*
G04 Created by KiCad (PCBNEW 9.0.2) date 2026-02-24 05:03:32*
%MOMM*%
%LPD*%
G01*
G04 APERTURE LIST*
G04 Aperture macros list*
%AMRoundRect*
0 Rectangle with rounded corners*
0 $1 Rounding radius*
0 $2 $3 $4 $5 $6 $7 $8 $9 X,Y pos of 4 corners*
0 Add a 4 corners polygon primitive as box body*
4,1,4,$2,$3,$4,$5,$6,$7,$8,$9,$2,$3,0*
0 Add four circle primitives for the rounded corners*
1,1,$1+$1,$2,$3*
1,1,$1+$1,$4,$5*
1,1,$1+$1,$6,$7*
1,1,$1+$1,$8,$9*
0 Add four rect primitives between the rounded corners*
20,1,$1+$1,$2,$3,$4,$5,0*
20,1,$1+$1,$4,$5,$6,$7,0*
20,1,$1+$1,$6,$7,$8,$9,0*
20,1,$1+$1,$8,$9,$2,$3,0*%
G04 Aperture macros list end*
%ADD10C,5.700000*%
%ADD11C,4.400000*%
%ADD12RoundRect,0.750000X-0.750000X-1.350000X0.750000X-1.350000X0.750000X1.350000X-0.750000X1.350000X0*%
%ADD13RoundRect,0.250000X-0.262500X-0.450000X0.262500X-0.450000X0.262500X0.450000X-0.262500X0.450000X0*%
%ADD14RoundRect,0.250000X0.262500X0.450000X-0.262500X0.450000X-0.262500X-0.450000X0.262500X-0.450000X0*%
%ADD15RoundRect,0.250000X-0.250000X-1.500000X0.250000X-1.500000X0.250000X1.500000X-0.250000X1.500000X0*%
%ADD16RoundRect,0.250001X-0.499999X-1.449999X0.499999X-1.449999X0.499999X1.449999X-0.499999X1.449999X0*%
%ADD17RoundRect,0.250000X-0.750000X0.600000X-0.750000X-0.600000X0.750000X-0.600000X0.750000X0.600000X0*%
%ADD18O,2.000000X1.700000*%
%ADD19R,2.000000X1.905000*%
%ADD20O,2.000000X1.905000*%
%ADD21RoundRect,0.102000X0.600000X-0.350000X0.600000X0.350000X-0.600000X0.350000X-0.600000X-0.350000X0*%
%ADD22RoundRect,0.102000X0.600000X-0.380000X0.600000X0.380000X-0.600000X0.380000X-0.600000X-0.380000X0*%
%ADD23RoundRect,0.102000X0.600000X-0.400000X0.600000X0.400000X-0.600000X0.400000X-0.600000X-0.400000X0*%
%ADD24O,1.954000X1.354000*%
%ADD25RoundRect,0.200000X-0.400000X-0.200000X0.400000X-0.200000X0.400000X0.200000X-0.400000X0.200000X0*%
%ADD26RoundRect,0.250000X-0.600000X-0.750000X0.600000X-0.750000X0.600000X0.750000X-0.600000X0.750000X0*%
%ADD27O,1.700000X2.000000*%
%ADD28RoundRect,0.622531X0.622530X0.731488X-0.622530X0.731488X-0.622530X-0.731488X0.622530X-0.731488X0*%
%ADD29RoundRect,0.586573X0.662391X0.586572X-0.662391X0.586572X-0.662391X-0.586572X0.662391X-0.586572X0*%
%ADD30RoundRect,0.613124X0.613124X0.869641X-0.613124X0.869641X-0.613124X-0.869641X0.613124X-0.869641X0*%
%ADD31RoundRect,0.617688X0.617688X0.858291X-0.617688X0.858291X-0.617688X-0.858291X0.617688X-0.858291X0*%
%ADD32RoundRect,0.607686X0.607686X0.896286X-0.607686X0.896286X-0.607686X-0.896286X0.607686X-0.896286X0*%
%ADD33RoundRect,0.608932X0.608932X0.895039X-0.608932X0.895039X-0.608932X-0.895039X0.608932X-0.895039X0*%
%ADD34RoundRect,0.470000X0.551402X0.470000X-0.551402X0.470000X-0.551402X-0.470000X0.551402X-0.470000X0*%
%ADD35RoundRect,0.585701X0.585701X0.723217X-0.585701X0.723217X-0.585701X-0.723217X0.585701X-0.723217X0*%
%ADD36RoundRect,0.250001X1.399999X-1.099999X1.399999X1.099999X-1.399999X1.099999X-1.399999X-1.099999X0*%
%ADD37O,3.300000X2.700000*%
G04 APERTURE END LIST*
D10*
%TO.C,H3*%
X16000000Y-132000000D03*
%TD*%
D11*
%TO.C,U3*%
X155500000Y-29500000D03*
D12*
X154500000Y-36000000D03*
D11*
X133500000Y-83500000D03*
D12*
X137000000Y-36000000D03*
X154500000Y-74000000D03*
X137000000Y-74000000D03*
%TD*%
D13*
%TO.C,R2*%
X178500000Y-105000000D03*
X180325000Y-105000000D03*
%TD*%
D14*
%TO.C,R3*%
X180325000Y-113500000D03*
X178500000Y-113500000D03*
%TD*%
D15*
%TO.C,J2*%
X114000000Y-126750000D03*
X116000000Y-126750000D03*
D16*
X111650000Y-132500000D03*
X118350000Y-132500000D03*
%TD*%
D17*
%TO.C,J5*%
X16500000Y-107500000D03*
D18*
X16500000Y-110000000D03*
%TD*%
D11*
%TO.C,U1*%
X44587500Y-30412500D03*
D12*
X43587500Y-36912500D03*
D11*
X22587500Y-84412500D03*
D12*
X26087500Y-36912500D03*
X43587500Y-74912500D03*
X26087500Y-74912500D03*
%TD*%
D19*
%TO.C,Q1*%
X84500000Y-94500000D03*
D20*
X84500000Y-97040000D03*
X84500000Y-99580000D03*
%TD*%
D21*
%TO.C,J7*%
X192157500Y-109820000D03*
D22*
X192157500Y-107800000D03*
D23*
X192157500Y-106570000D03*
D21*
X192157500Y-108820000D03*
D22*
X192157500Y-110840000D03*
D23*
X192157500Y-112070000D03*
D24*
X192237500Y-113640000D03*
X192237500Y-105000000D03*
X196037500Y-113640000D03*
X196037500Y-105000000D03*
%TD*%
D11*
%TO.C,U5*%
X120000000Y-29500000D03*
D12*
X119000000Y-36000000D03*
D11*
X98000000Y-83500000D03*
D12*
X101500000Y-36000000D03*
X119000000Y-74000000D03*
X101500000Y-74000000D03*
%TD*%
D25*
%TO.C,U4*%
X59850000Y-96730000D03*
X59850000Y-99270000D03*
X66150000Y-99270000D03*
X66150000Y-98000000D03*
X66150000Y-96730000D03*
%TD*%
D13*
%TO.C,R1*%
X52587500Y-113500000D03*
X54412500Y-113500000D03*
%TD*%
D26*
%TO.C,J6*%
X68750000Y-131150000D03*
D27*
X71250000Y-131150000D03*
%TD*%
D15*
%TO.C,J3*%
X37000000Y-127150000D03*
X39000000Y-127150000D03*
X41000000Y-127150000D03*
D16*
X34650000Y-132900000D03*
X43350000Y-132900000D03*
%TD*%
D10*
%TO.C,H1*%
X16000000Y-16000000D03*
%TD*%
%TO.C,H4*%
X193500000Y-131500000D03*
%TD*%
%TO.C,H2*%
X194000000Y-16000000D03*
%TD*%
D28*
%TO.C,U6*%
X178984156Y-37522799D03*
D29*
X176390131Y-37522799D03*
D11*
X176511148Y-41918656D03*
X191973267Y-57158934D03*
D30*
X192415343Y-37476517D03*
D31*
X189693405Y-37458331D03*
D32*
X178954467Y-60690858D03*
D33*
X176371231Y-60690859D03*
D34*
X192310034Y-60806094D03*
D35*
X189668639Y-60683226D03*
%TD*%
D26*
%TO.C,J4*%
X147750000Y-131150000D03*
D27*
X150250000Y-131150000D03*
%TD*%
D36*
%TO.C,J1*%
X103750000Y-16500000D03*
D37*
X109250000Y-16500000D03*
%TD*%
D11*
%TO.C,U2*%
X83000000Y-30500000D03*
D12*
X82000000Y-37000000D03*
D11*
X61000000Y-84500000D03*
D12*
X64500000Y-37000000D03*
X82000000Y-75000000D03*
X64500000Y-75000000D03*
%TD*%
M02*
